<svg fill="none" height="20" viewbox="0 0 20 20" width="20" xmlns="http://www.w3.org/2000/svg">
<path d="M9.37516 10.6252H5.2085C5.03141 10.6252 4.88301 10.5652 4.76329 10.4454C4.64343 10.3255 4.5835 10.177 4.5835 9.99995C4.5835 9.82273 4.64343 9.67433 4.76329 9.55475C4.88301 9.43502 5.03141 9.37516 5.2085 9.37516H9.37516V5.2085C9.37516 5.03141 9.43509 4.88301 9.55495 4.76329C9.67482 4.64343 9.82329 4.5835 10.0004 4.5835C10.1776 4.5835 10.326 4.64343 10.4456 4.76329C10.5653 4.88301 10.6252 5.03141 10.6252 5.2085V9.37516H14.7918C14.9689 9.37516 15.1173 9.43509 15.237 9.55495C15.3569 9.67482 15.4168 9.82329 15.4168 10.0004C15.4168 10.1776 15.3569 10.326 15.237 10.4456C15.1173 10.5653 14.9689 10.6252 14.7918 10.6252H10.6252V14.7918C10.6252 14.9689 10.5652 15.1173 10.4454 15.237C10.3255 15.3569 10.177 15.4168 9.99995 15.4168C9.82273 15.4168 9.67433 15.3569 9.55475 15.237C9.43502 15.1173 9.37516 14.9689 9.37516 14.7918V10.6252Z" fill="white"></path>
</svg>