<svg fill="none" height="44" viewbox="0 0 110 44" width="110" xmlns="http://www.w3.org/2000/svg">
<g opacity="0.6">
<path d="M83.1202 0.52855C84.1154 -0.0594177 85.589 -0.380416 86.3098 0.792341C86.4757 2.36555 86.0578 3.91651 85.9271 5.48019C85.6623 6.74829 85.8505 8.1181 85.1966 9.29085C84.7597 9.25272 84.3259 9.20822 83.8953 9.16055C83.5763 6.29063 83.1138 3.42389 83.1202 0.52855Z" fill="#7A7C84"></path>
<path d="M71.0664 6.15706C70.891 4.83175 72.3837 3.90372 73.5926 4.07852C74.642 5.51824 75.4649 7.10417 76.3644 8.63606C76.9513 9.72618 77.7327 10.7813 77.8189 12.059C77.1745 12.0399 76.3133 12.3387 75.87 11.703C74.3166 9.81517 72.3997 8.21972 71.0664 6.15706Z" fill="#7A7C84"></path>
<path d="M96.4496 3.82437C97.1577 3.6591 97.8307 4.10405 98.3474 4.53628C98.6121 5.20371 98.7078 6.11585 98.1369 6.65932C96.6665 8.25796 95.2885 9.94559 93.7097 11.4425C93.3014 11.9796 92.5773 11.7667 92 11.7985C92.0574 11.2963 92.0351 10.7624 92.2807 10.3015C93.1132 8.64252 94.1466 7.09791 95.027 5.46432C95.3938 4.84457 95.7096 4.08816 96.4496 3.82437Z" fill="#7A7C84"></path>
<path d="M83.9815 12.2974C84.377 10.81 86.1249 10.9657 87.3274 11.1405C89.5538 12.1321 91.3559 13.8515 93.0209 15.5932C94.4594 17.2204 95.9171 19.1496 95.949 21.4156C96.2297 25.15 93.8406 28.4744 91.1326 30.8104C89.4549 32.1675 87.4773 33.4833 85.2286 33.4324C82.5621 33.5055 80.2081 31.9514 78.2146 30.3464C76.1732 28.4299 73.8416 26.2719 73.5864 23.3194C73.7076 20.6656 75.1557 18.2501 77.0089 16.4131C78.4602 15.0783 80.3389 14.0867 82.3388 14.0231C85.5253 14.6683 88.144 16.9248 90.0322 19.4737C91.2602 20.9166 91.1741 23.1922 90.0928 24.6923C88.9733 26.4562 87.2827 27.9913 85.2254 28.5221C83.401 28.4617 81.9592 27.1332 80.6419 26.0113C79.6308 25.0229 78.3103 23.7866 78.709 22.2197C79.1492 20.9198 80.1411 19.8392 81.2735 19.086C83.1011 18.5044 84.6226 20.0935 85.7358 21.3139C86.4981 21.9972 85.6337 22.9857 85.0659 23.4878C83.8411 23.6149 83.3882 21.8606 82.1793 21.8987C81.5605 22.2038 81.2224 23.046 81.854 23.5291C82.7981 24.4381 83.7678 25.8206 85.2191 25.7316C86.4694 25.15 87.3051 23.9836 87.9909 22.8363C88.5554 22.0513 87.9366 21.1391 87.455 20.4939C86.1058 18.9652 84.5684 17.4492 82.5844 16.8072C81.417 16.5371 80.3931 17.303 79.5096 17.945C78.2273 19.0097 77.2162 20.4272 76.6325 21.9845C76.1477 23.1668 76.6421 24.4731 77.363 25.4456C78.7568 27.3652 80.6547 28.8844 82.7184 30.0444C83.5732 30.4481 84.5078 30.839 85.4742 30.7564C87.3497 30.2828 88.9254 29.0592 90.3129 27.7625C92.0385 25.916 93.5504 23.437 92.9858 20.8118C92.2044 18.587 90.4022 16.9852 88.7532 15.3897C87.3465 14.1026 85.6178 13.2508 83.9815 12.2974Z" fill="#7A7C84"></path>
<path d="M92.0318 32.6856C92.4719 32.6888 92.9249 32.6538 93.3618 32.7364C94.8992 34.0681 96.1049 35.7208 97.5179 37.17C97.9613 37.6786 98.612 38.1616 98.545 38.9181C98.7172 40.1798 97.1447 41.1333 96.0667 40.5103C94.9886 39.2963 94.3315 37.7866 93.4926 36.4105C92.8483 35.2409 91.8659 34.1094 92.0318 32.6856Z" fill="#7A7C84"></path>
<path d="M75.8285 32.9938C76.2209 32.463 76.8939 32.7395 77.4425 32.7268C77.5637 34.0331 76.6483 35.0469 76.0869 36.137C75.2097 37.5926 74.4697 39.1436 73.4331 40.4943C72.1987 41.3143 70.0521 39.722 70.9356 38.3141C72.4922 36.4803 74.0934 34.6655 75.8285 32.9938Z" fill="#7A7C84"></path>
<path d="M84.077 35.2473C84.5107 35.26 84.9445 35.2727 85.3815 35.2886C85.8536 38.1681 86.2969 41.0761 86.3639 44.0001H83.1296C83.1201 43.0816 83.1264 42.1631 83.2317 41.2509C83.5411 39.2519 83.4518 37.1924 84.077 35.2473Z" fill="#7A7C84"></path>
<path d="M18.0004 8.11813C18.3002 7.70179 18.6543 7.17739 19.2444 7.28544C20.045 7.31087 21.1677 7.02483 21.5569 7.9624C22.6828 10.2253 23.5185 12.6185 24.4403 14.9703C24.6381 15.4852 24.9411 16.1177 25.595 16.1081C27.8628 16.2448 30.153 15.9747 32.4144 16.2321C33.4989 16.747 33.5212 18.0246 33.8083 19.0289C34.2612 18.2788 34.6663 17.4589 35.3616 16.8963C36.2962 16.6739 37.2754 16.7342 38.2228 16.8328C39.2466 16.9027 39.2211 18.2216 39.5624 18.9431C40.1652 18.2057 40.6309 17.2269 41.54 16.8359C42.7839 16.712 44.0662 16.6739 45.2974 16.9186C45.7088 17.2714 46.2606 17.6273 46.1873 18.2502C46.2862 20.4782 46.1777 22.7061 46.2192 24.934C46.1905 25.6078 46.5318 26.2085 46.8061 26.8028C47.6641 26.3515 48.8953 25.7699 48.7167 24.613C48.6497 22.1817 49.1919 19.6804 50.5156 17.6178C51.2078 16.6039 52.3273 15.7363 53.6255 15.8602C55.0258 15.9492 56.5026 16.2384 57.5807 17.2014C58.3079 17.8816 59.2935 18.1231 60.1196 18.6412C59.504 20.6752 59.15 22.8046 59.2393 24.934C59.2138 25.5474 59.6827 25.9987 59.9889 26.4818C60.8533 25.9987 61.622 25.3631 62.2726 24.6194C64.0716 22.6266 66.18 20.9168 67.7684 18.7333C66.0109 18.5808 64.212 18.9908 62.4832 18.6443C62.397 17.8371 62.4289 17.0266 62.4481 16.2194C65.054 16.1749 67.6631 16.2035 70.2691 16.1908C71.5067 16.0223 72.6262 17.7862 71.7778 18.7842C69.998 21.1392 67.8194 23.1637 66.0173 25.5029C67.762 25.7985 69.5514 25.7222 71.293 25.4425C71.9245 25.4489 72.7379 25.1469 73.1812 25.754C73.7394 26.4627 73.9499 27.3653 74.2561 28.198C70.6901 28.3474 67.1177 28.233 63.5517 28.2679C62.9106 28.3251 62.4098 27.877 61.8899 27.5846C61.0223 27.8834 60.1388 28.4205 59.1851 28.1948C58.2059 28.0359 57.5647 27.2255 56.8535 26.6185C56.4005 27.4257 55.954 28.5063 54.9141 28.6684C52.8919 29.2627 50.7102 28.5953 49.1919 27.1969C48.2733 27.7213 47.4663 28.6461 46.3244 28.5921C44.8987 28.7383 43.2943 27.6895 43.2847 26.1767C43.1571 23.7771 43.2815 21.3744 43.2145 18.9749C42.9562 18.9781 42.4395 18.9876 42.1811 18.9908C40.3407 21.6573 40.6852 25.0166 39.8335 28.001C38.8894 27.9215 37.4828 28.3474 36.9565 27.3081C36.5992 24.4509 37.234 21.5524 36.9022 18.6888C36.4334 18.9526 35.9326 19.2323 35.6966 19.7408C34.6695 21.5111 34.0571 23.5356 34.0092 25.5855C33.9869 26.4627 33.8944 27.3494 33.6073 28.1821C32.6409 28.4904 31.3937 28.4777 30.6218 27.7308C30.1306 24.7719 30.8387 21.7685 30.7717 18.7937C29.1546 18.692 27.5374 18.7333 25.9235 18.7302C26.6826 21.4221 27.8245 23.9869 28.8069 26.6026C29.0015 27.1206 28.96 27.6832 28.9983 28.2266C27.8405 28.1345 26.2106 28.7192 25.4227 27.6005C24.2617 24.7528 23.6174 21.7049 22.4372 18.8668C20.2364 18.7015 18.0196 18.8732 15.8155 18.7842C15.5029 19.2641 15.1872 19.7472 14.9416 20.2684C12.527 25.5538 10.0646 30.82 7.7808 36.1626C7.54796 36.6075 7.35339 37.1542 6.86219 37.3798C5.42366 37.8915 3.87987 37.828 2.37755 37.7803C2.40626 37.1351 2.39669 36.4518 2.76988 35.8924C5.02495 31.7799 7.29917 27.68 9.52235 23.5515C10.3038 22.0673 11.2448 20.6593 11.854 19.0893C9.74244 19.0067 7.6277 19.0289 5.52254 19.1878C3.94367 19.458 2.31695 19.2387 0.763593 19.69C0.495663 19.3721 0.214974 19.0639 -0.00830078 18.7143C0.0172164 17.8434 0.297905 17.0012 0.511611 16.1622C4.81444 16.0986 9.1364 16.3497 13.4297 16.105C15.1074 13.537 16.3833 10.7243 18.0004 8.11813ZM16.9606 16.159C18.5299 16.1399 20.1598 16.426 21.6845 15.9365C21.0114 14.3252 20.5394 12.6439 19.9014 11.023C19.7515 11.0612 19.4485 11.1374 19.2954 11.1756C18.2907 12.7138 17.4869 14.3983 16.9606 16.159ZM54.2698 18.5426C52.3911 20.4972 52.0945 23.4752 52.2667 26.0559C52.3178 26.8918 53.1311 27.0507 53.8169 27.0761C55.5904 24.8514 56.1677 21.9656 56.3973 19.2005C56.611 18.085 54.8535 17.7163 54.2698 18.5426Z" fill="#7A7C84"></path>
<path d="M96.96 16.213C97.9999 16.1113 99.0429 16.1208 100.086 16.1812C100.076 17.0075 100.048 17.837 100.08 18.6666C100.941 17.8911 101.579 16.8327 102.638 16.2861C104.245 15.9524 105.948 16.159 107.371 17.0044C107.642 19.3213 107.47 21.67 107.164 23.9741C107.087 24.6892 107.285 25.6522 108.07 25.8906C108.685 26.0463 109.326 26.0336 109.958 26.094C110.002 26.9172 110.002 27.7371 109.961 28.5603C107.888 28.6302 105.126 28.3505 104.28 26.1067C103.824 23.7294 104.386 21.3235 104.532 18.9431C104.025 18.8986 103.4 18.6125 103.065 19.1624C100.507 21.6 100.682 25.4012 100.083 28.6143C99.0684 28.5571 97.7957 28.9735 97.0015 28.1567C96.7687 27.4289 96.8994 26.6438 96.8771 25.8906C97.0302 22.6679 96.909 19.4389 96.96 16.213Z" fill="#7A7C84"></path>
</g>
</svg>