<svg fill="none" height="136" viewbox="0 0 378 136" width="378" xmlns="http://www.w3.org/2000/svg">
<mask height="116" id="mask0_22482_1539" maskunits="userSpaceOnUse" style="mask-type:alpha" width="377" x="1" y="20">
<path d="M41.5153 91.1346L32.49 71.0605L1 81.6005V135.88H377.235V35.7005L345.745 41.4805L328.917 53.3791C321.197 58.8379 310.451 56.4278 305.801 48.1948C301.788 41.0895 293.063 38.1543 285.572 41.3897L283 42.5005L282.251 42.8123C274.098 46.2084 264.734 42.3546 261.333 34.2027L259.835 30.6125C255.766 20.8578 243.524 17.6594 235.203 24.1767L220.49 35.7005L200.904 33.1437C193.962 32.2376 187.238 35.9494 184.305 42.3059L175.396 61.614C174.15 64.3146 172.176 66.6144 169.695 68.2554L157.745 76.1605L134.73 71.9043C129.569 70.9499 124.268 72.5873 120.545 76.286L95 101.66L87.096 96.2892C82.3866 93.0888 76.3311 92.6324 71.1952 95.0907L63.016 99.0056C54.9105 102.885 45.2002 99.3306 41.5153 91.1346Z" fill="url(#paint0_linear_22482_1539)" opacity="0.6"></path>
</mask>
<g mask="url(#mask0_22482_1539)">
<line stroke="#B899EB" stroke-width="0.5" transform="matrix(-1.78665e-09 1 -1 -1.06942e-06 32.3335 0)" x2="136" y1="-0.25" y2="-0.25"></line>
<line stroke="#B899EB" stroke-width="0.5" transform="matrix(-1.79906e-09 1 -1 -1.06205e-06 95 0)" x2="136" y1="-0.25" y2="-0.25"></line>
<line stroke="#B899EB" stroke-width="0.5" transform="matrix(-1.80651e-09 1 -1 -1.05767e-06 157.667 0)" x2="136" y1="-0.25" y2="-0.25"></line>
<line stroke="#B899EB" stroke-width="0.5" transform="matrix(-1.80899e-09 1 -1 -1.05622e-06 220.333 0)" x2="136" y1="-0.25" y2="-0.25"></line>
<line stroke="#B899EB" stroke-width="0.5" transform="matrix(-1.80899e-09 1 -1 -1.05622e-06 283 0)" x2="136" y1="-0.25" y2="-0.25"></line>
<line stroke="#B899EB" stroke-width="0.5" transform="matrix(-1.80899e-09 1 -1 -1.05622e-06 345.667 0)" x2="136" y1="-0.25" y2="-0.25"></line>
</g>
<mask height="136" id="mask1_22482_1539" maskunits="userSpaceOnUse" style="mask-type:alpha" width="376" x="1" y="0">
<rect fill="url(#paint1_radial_22482_1539)" height="136" width="376" x="1"></rect>
</mask>
<g mask="url(#mask1_22482_1539)">
<path d="M31.812 81.4751L0.882324 102.681V136.283H377.117V24.3109L346.654 19.1936C346.077 19.0967 345.487 19.2572 345.038 19.6328L330.968 31.4187C330.439 31.8617 329.719 32.0008 329.063 31.7868L300.458 22.4517C299.535 22.1505 298.529 22.5557 298.073 23.4125L268.455 78.9899C267.973 79.894 266.886 80.2878 265.937 79.9021L237.518 68.3525C236.746 68.0387 235.861 68.2366 235.295 68.849L205.43 101.215C205.067 101.609 204.561 101.841 204.025 101.858L174.463 102.812C173.72 102.836 173.025 102.446 172.659 101.799L142.999 49.4598C142.549 48.6658 141.619 48.2771 140.738 48.5149L111.623 56.3739C111.065 56.5245 110.6 56.909 110.346 57.4284L95.9623 86.9365C95.4459 87.9957 94.1304 88.3812 93.124 87.7682L64.9194 70.5864C64.2119 70.1554 63.312 70.2052 62.6564 70.7116L48.7055 81.4866C48.3261 81.7797 47.854 81.9267 47.3752 81.9008L33.0507 81.1275C32.6108 81.1038 32.1753 81.2259 31.812 81.4751Z" fill="#B899EB" opacity="0.6"></path>
</g>
<path d="M0.882324 102.68L31.812 81.474C32.1753 81.2248 32.6108 81.1027 33.0507 81.1264L47.3752 81.8997C47.854 81.9256 48.3261 81.7786 48.7055 81.4855L62.6564 70.7105C63.312 70.2041 64.2119 70.1543 64.9194 70.5853L93.124 87.7671C94.1304 88.3801 95.4459 87.9946 95.9623 86.9354L110.346 57.4273C110.6 56.9079 111.065 56.5234 111.623 56.3728L140.738 48.5138C141.619 48.276 142.549 48.6647 142.999 49.4587L172.659 101.798C173.025 102.445 173.72 102.835 174.463 102.811L204.025 101.857C204.561 101.84 205.067 101.608 205.43 101.214L235.295 68.8479C235.861 68.2355 236.746 68.0376 237.518 68.3514L265.937 79.901C266.886 80.2867 267.973 79.8929 268.455 78.9888L298.073 23.4114C298.529 22.5546 299.535 22.1494 300.458 22.4506L329.063 31.7857C329.719 31.9997 330.439 31.8606 330.968 31.4176L345.038 19.6317C345.487 19.2561 346.077 19.0956 346.654 19.1925L377.117 24.3098" stroke="#B899EB" stroke-dasharray="2 4" stroke-linecap="round" stroke-linejoin="round"></path>
<mask height="136" id="mask2_22482_1539" maskunits="userSpaceOnUse" style="mask-type:alpha" width="376" x="1" y="0">
<rect fill="url(#paint2_radial_22482_1539)" height="136" width="376" x="1"></rect>
</mask>
<g mask="url(#mask2_22482_1539)">
<path d="M47.395 104.212L32.49 71.0603L1 81.6003V135.88H377.235V35.7003L345.745 41.4803L316.298 62.3022C315.33 62.9862 313.984 62.6842 313.401 61.6527L299.629 37.2657C299.126 36.3755 298.033 36.0078 297.095 36.4131L283 42.5003L269.335 48.1918C268.316 48.6163 267.146 48.1346 266.72 47.1156L252.756 13.6443C252.248 12.425 250.717 12.0252 249.677 12.8399L220.49 35.7003L190.694 31.8107C189.826 31.6975 188.985 32.1614 188.619 32.956L173.728 65.2287C173.573 65.5663 173.326 65.8537 173.016 66.0589L157.745 76.1603L127.52 70.5708C126.875 70.4515 126.212 70.6562 125.747 71.1185L95 101.66L80.4408 91.7664C79.8521 91.3664 79.0951 91.3093 78.4532 91.6166L50.0826 105.196C49.0694 105.681 47.8557 105.237 47.395 104.212Z" fill="#B899EB" opacity="0.6"></path>
</g>
<path d="M1 81.6003L32.49 71.0603L47.395 104.212C47.8557 105.237 49.0694 105.681 50.0826 105.196L78.4532 91.6166C79.0951 91.3093 79.8521 91.3664 80.4408 91.7664L95 101.66L125.747 71.1185C126.212 70.6562 126.875 70.4515 127.52 70.5708L157.745 76.1603L173.016 66.0589C173.326 65.8537 173.573 65.5663 173.728 65.2287L188.619 32.956C188.985 32.1614 189.826 31.6975 190.694 31.8107L220.49 35.7003L249.677 12.8399C250.717 12.0252 252.248 12.425 252.756 13.6443L266.72 47.1156C267.146 48.1346 268.316 48.6163 269.335 48.1918L283 42.5003L297.095 36.4131C298.033 36.0078 299.126 36.3755 299.629 37.2657L313.401 61.6527C313.984 62.6842 315.33 62.9862 316.298 62.3022L345.745 41.4803L377.235 35.7003" stroke="#B899EB" stroke-linecap="round" stroke-linejoin="round"></path>
<g filter="url(#filter0_d_22482_1539)">
<path d="M32.4902 71.0608L95.0002 101.661L157.745 76.1608L220.49 35.7008L283 42.5008L345.745 41.4808" stroke="white" stroke-dasharray="0.01 10000" stroke-linecap="round" stroke-linejoin="round" stroke-width="10"></path>
</g>
<path d="M32.4902 71.0608L95.0002 101.661L157.745 76.1608L220.49 35.7008L283 42.5008L345.745 41.4808" stroke="black" stroke-dasharray="0.01 10000" stroke-linecap="round" stroke-linejoin="round" stroke-width="8"></path>
<path d="M32.4902 71.0608L95.0002 101.661L157.745 76.1608L220.49 35.7008L283 42.5008L345.745 41.4808" stroke="white" stroke-dasharray="0.01 10000" stroke-linecap="round" stroke-linejoin="round" stroke-width="4"></path>
<defs>
<filter color-interpolation-filters="sRGB" filterunits="userSpaceOnUse" height="83.96" id="filter0_d_22482_1539" width="331.256" x="23.4893" y="28.7008">
<feflood flood-opacity="0" result="BackgroundImageFix"></feflood>
<fecolormatrix in="SourceAlpha" result="hardAlpha" type="matrix" values="0 0 0 0 0 0 0 0 0 0 0 0 0 0 0 0 0 0 127 0"></fecolormatrix>
<feoffset dy="2"></feoffset>
<fegaussianblur stddeviation="2"></fegaussianblur>
<fecomposite in2="hardAlpha" operator="out"></fecomposite>
<fecolormatrix type="matrix" values="0 0 0 0 0 0 0 0 0 0 0 0 0 0 0 0 0 0 0.1 0"></fecolormatrix>
<feblend in2="BackgroundImageFix" mode="normal" result="effect1_dropShadow_22482_1539"></feblend>
<feblend in="SourceGraphic" in2="effect1_dropShadow_22482_1539" mode="normal" result="shape"></feblend>
</filter>
<lineargradient gradientunits="userSpaceOnUse" id="paint0_linear_22482_1539" x1="227.422" x2="227.422" y1="-0.130707" y2="135.88">
<stop></stop>
<stop offset="0.95" stop-opacity="0"></stop>
</lineargradient>
<radialgradient cx="0" cy="0" gradienttransform="translate(189 24.9823) rotate(90) scale(93.0733 188)" gradientunits="userSpaceOnUse" id="paint1_radial_22482_1539" r="1">
<stop stop-opacity="0.1"></stop>
<stop offset="1" stop-opacity="0"></stop>
</radialgradient>
<radialgradient cx="0" cy="0" gradienttransform="translate(189 24.9823) rotate(90) scale(93.0733 188)" gradientunits="userSpaceOnUse" id="paint2_radial_22482_1539" r="1">
<stop stop-opacity="0.1"></stop>
<stop offset="1" stop-opacity="0"></stop>
</radialgradient>
</defs>
</svg>