<svg fill="none" height="58" viewbox="0 0 59 58" width="59" xmlns="http://www.w3.org/2000/svg">
<rect fill="white" fill-opacity="0.01" height="44" transform="translate(8 7)" width="44"></rect>
<path d="M19.6735 17.6713L30.1264 14.8704C33.9356 13.8498 36.6949 15.5148 37.7558 19.4743L40.6643 30.3292C41.7253 34.2886 40.1682 37.1102 36.359 38.1309L25.9062 40.9317C22.097 41.9524 19.3477 40.2847 18.2867 36.3252L15.3782 25.4703C14.3172 21.5109 15.8644 18.6919 19.6735 17.6713Z" fill="url(#paint0_linear_22603_491)"></path>
<g filter="url(#filter0_f_22603_491)">
<path d="M22.6128 21.6795L29.712 19.7773C32.2991 19.0841 34.1409 20.0946 34.8045 22.5713L36.6239 29.3613C37.2875 31.838 36.1978 33.634 33.6107 34.3272L26.5114 36.2295C23.9244 36.9227 22.0893 35.9104 21.4257 33.4336L19.6063 26.6437C18.9427 24.167 20.0257 22.3727 22.6128 21.6795Z" fill="#6A00FF" fill-opacity="0.5"></path>
</g>
<foreignobject height="38.6392" width="38.6392" x="14.645" y="13.0892">
<div style="backdrop-filter:blur(3px);clip-path:url(#bgblur_0_22603_491_clip_path);height:100%;width:100%" xmlns="http://www.w3.org/1999/xhtml">
</div>
</foreignobject>
<g data-figma-bg-blur-radius="6">
<mask fill="black" height="27" id="path-3-outside-1_22603_491" maskunits="userSpaceOnUse" width="27" x="20.645" y="19.0892">
<rect fill="white" height="27" width="27" x="20.645" y="19.0892"></rect>
<path d="M39.3113 20.0892H28.6302C24.4539 20.0892 21.645 23.0213 21.645 27.3824V37.4476C21.645 41.7964 24.4539 44.7285 28.6302 44.7285H39.3113C43.4877 44.7285 46.2842 41.7964 46.2842 37.4476V27.3824C46.2842 23.0213 43.4877 20.0892 39.3113 20.0892Z"></path>
</mask>
<path d="M39.3113 20.0892H28.6302C24.4539 20.0892 21.645 23.0213 21.645 27.3824V37.4476C21.645 41.7964 24.4539 44.7285 28.6302 44.7285H39.3113C43.4877 44.7285 46.2842 41.7964 46.2842 37.4476V27.3824C46.2842 23.0213 43.4877 20.0892 39.3113 20.0892Z" fill="#683EFE" fill-opacity="0.35"></path>
<path d="M39.3113 21.0892C39.8636 21.0892 40.3113 20.6415 40.3113 20.0892C40.3113 19.5369 39.8636 19.0892 39.3113 19.0892V20.0892V21.0892ZM39.3113 19.0892C38.7591 19.0892 38.3113 19.5369 38.3113 20.0892C38.3113 20.6415 38.7591 21.0892 39.3113 21.0892V20.0892V19.0892ZM39.3113 20.0892V19.0892H28.6302V20.0892V21.0892H39.3113V20.0892ZM28.6302 20.0892V19.0892C26.2993 19.0892 24.2819 19.913 22.8493 21.4087C21.4203 22.9006 20.645 24.9851 20.645 27.3824H21.645H22.645C22.645 25.4186 23.2742 23.8565 24.2937 22.7921C25.3096 21.7315 26.7848 21.0892 28.6302 21.0892V20.0892ZM21.645 27.3824H20.645V37.4476H21.645H22.645V27.3824H21.645ZM21.645 37.4476H20.645C20.645 39.8395 21.4207 41.9209 22.8497 43.411C24.2822 44.9047 26.2993 45.7285 28.6302 45.7285V44.7285V43.7285C26.7848 43.7285 25.3093 43.0861 24.2933 42.0267C23.2737 40.9635 22.645 39.4045 22.645 37.4476H21.645ZM28.6302 44.7285V45.7285H39.3113V44.7285V43.7285H28.6302V44.7285ZM39.3113 44.7285V45.7285C41.6424 45.7285 43.6569 44.9046 45.0865 43.4101C46.5124 41.9195 47.2842 39.8382 47.2842 37.4476H46.2842H45.2842C45.2842 39.4057 44.6578 40.9649 43.6413 42.0276C42.6285 43.0863 41.1566 43.7285 39.3113 43.7285V44.7285ZM46.2842 37.4476H47.2842V27.3824H46.2842H45.2842V37.4476H46.2842ZM46.2842 27.3824H47.2842C47.2842 24.9863 46.5128 22.902 45.087 21.4096C43.6572 19.9132 41.6425 19.0892 39.3113 19.0892V20.0892V21.0892C41.1565 21.0892 42.6282 21.7313 43.6409 22.7912C44.6574 23.8552 45.2842 25.4174 45.2842 27.3824H46.2842Z" fill="url(#paint1_linear_22603_491)" mask="url(#path-3-outside-1_22603_491)"></path>
</g>
<foreignobject height="47.3174" width="48.5547" x="10.3562" y="10.0367">
<div style="backdrop-filter:blur(7.5px);clip-path:url(#bgblur_1_22603_491_clip_path);height:100%;width:100%" xmlns="http://www.w3.org/1999/xhtml">
</div>
</foreignobject>
<g data-figma-bg-blur-radius="15" filter="url(#filter2_d_22603_491)">
<mask fill="white" id="path-5-inside-2_22603_491">
<path clip-rule="evenodd" d="M38.1139 33.8453C38.39 33.4739 39.4139 32.3121 40.7398 33.1393C41.5844 33.6601 42.2952 34.3643 43.0553 35.1188C43.3449 35.4071 43.551 35.7354 43.6891 36.0875C44.1032 37.1495 43.8886 38.4263 43.4459 39.4781C42.921 40.7292 41.9153 41.6768 40.649 42.0905C40.0868 42.2742 39.4971 42.3541 38.9088 42.3541H28.484C27.4466 42.3541 26.5285 42.1056 25.776 41.6422C25.3046 41.3512 25.2215 40.68 25.5709 40.2448C26.1555 39.5171 26.7329 38.787 27.315 38.0504C28.4244 36.6413 29.1717 36.232 30.0025 36.5905C30.3396 36.7385 30.6787 36.961 31.0269 37.1959C31.9549 37.8265 33.245 38.6933 34.9439 37.7526C36.113 37.0977 36.788 35.9712 37.3775 34.9948C37.6187 34.5992 37.8478 34.2039 38.1139 33.8453ZM29.6842 25.0367C31.3883 25.0367 32.775 26.4246 32.775 28.1295C32.7748 29.8343 31.3882 31.2213 29.6842 31.2213C27.979 31.2212 26.5935 29.8342 26.5934 28.1295C26.5934 26.4247 27.9789 25.0368 29.6842 25.0367Z" fill-rule="evenodd"></path>
</mask>
<path clip-rule="evenodd" d="M38.1139 33.8453C38.39 33.4739 39.4139 32.3121 40.7398 33.1393C41.5844 33.6601 42.2952 34.3643 43.0553 35.1188C43.3449 35.4071 43.551 35.7354 43.6891 36.0875C44.1032 37.1495 43.8886 38.4263 43.4459 39.4781C42.921 40.7292 41.9153 41.6768 40.649 42.0905C40.0868 42.2742 39.4971 42.3541 38.9088 42.3541H28.484C27.4466 42.3541 26.5285 42.1056 25.776 41.6422C25.3046 41.3512 25.2215 40.68 25.5709 40.2448C26.1555 39.5171 26.7329 38.787 27.315 38.0504C28.4244 36.6413 29.1717 36.232 30.0025 36.5905C30.3396 36.7385 30.6787 36.961 31.0269 37.1959C31.9549 37.8265 33.245 38.6933 34.9439 37.7526C36.113 37.0977 36.788 35.9712 37.3775 34.9948C37.6187 34.5992 37.8478 34.2039 38.1139 33.8453ZM29.6842 25.0367C31.3883 25.0367 32.775 26.4246 32.775 28.1295C32.7748 29.8343 31.3882 31.2213 29.6842 31.2213C27.979 31.2212 26.5935 29.8342 26.5934 28.1295C26.5934 26.4247 27.9789 25.0368 29.6842 25.0367Z" fill="url(#paint2_linear_22603_491)" fill-rule="evenodd"></path>
<path clip-rule="evenodd" d="M38.1139 33.8453L37.9533 33.726L37.9532 33.7262L38.1139 33.8453ZM40.7398 33.1393L40.634 33.309L40.6349 33.3095L40.7398 33.1393ZM43.0553 35.1188L43.1964 34.977L43.1962 34.9768L43.0553 35.1188ZM43.6891 36.0875L43.8754 36.0149L43.8753 36.0145L43.6891 36.0875ZM43.4459 39.4781L43.2616 39.4006L43.2615 39.4008L43.4459 39.4781ZM40.649 42.0905L40.5869 41.9003L40.5869 41.9004L40.649 42.0905ZM25.776 41.6422L25.6709 41.8124L25.6711 41.8125L25.776 41.6422ZM25.5709 40.2448L25.415 40.1195L25.4149 40.1196L25.5709 40.2448ZM27.315 38.0504L27.4719 38.1744L27.4722 38.1741L27.315 38.0504ZM30.0025 36.5905L30.083 36.4073L30.0818 36.4068L30.0025 36.5905ZM31.0269 37.1959L31.1394 37.0305L31.1388 37.0301L31.0269 37.1959ZM34.9439 37.7526L35.0408 37.9275L35.0417 37.927L34.9439 37.7526ZM37.3775 34.9948L37.2068 34.8906L37.2063 34.8914L37.3775 34.9948ZM29.6842 25.0367V24.8367H29.6842L29.6842 25.0367ZM32.775 28.1295L32.975 28.1295V28.1295H32.775ZM29.6842 31.2213L29.6842 31.4213H29.6842V31.2213ZM26.5934 28.1295H26.3934V28.1295L26.5934 28.1295ZM38.1139 33.8453L38.2744 33.9647C38.405 33.7889 38.7079 33.4339 39.1243 33.2208C39.5283 33.0141 40.0399 32.9383 40.634 33.309L40.7398 33.1393L40.8457 32.9696C40.1138 32.513 39.4505 32.6046 38.942 32.8648C38.4459 33.1187 38.0989 33.5303 37.9533 33.726L38.1139 33.8453ZM40.7398 33.1393L40.6349 33.3095C41.4565 33.8162 42.1513 34.5032 42.9144 35.2607L43.0553 35.1188L43.1962 34.9768C42.4392 34.2254 41.7124 33.504 40.8448 32.969L40.7398 33.1393ZM43.0553 35.1188L42.9142 35.2605C43.1831 35.5282 43.3743 35.8326 43.5029 36.1605L43.6891 36.0875L43.8753 36.0145C43.7277 35.6381 43.5068 35.2861 43.1964 34.977L43.0553 35.1188ZM43.6891 36.0875L43.5027 36.1602C43.8901 37.1534 43.6945 38.372 43.2616 39.4006L43.4459 39.4781L43.6302 39.5557C44.0827 38.4807 44.3163 37.1455 43.8754 36.0149L43.6891 36.0875ZM43.4459 39.4781L43.2615 39.4008C42.7581 40.6004 41.7958 41.5055 40.5869 41.9003L40.649 42.0905L40.7111 42.2806C42.0348 41.8482 43.0838 40.858 43.6303 39.5555L43.4459 39.4781ZM40.649 42.0905L40.5869 41.9004C40.0476 42.0766 39.4792 42.1541 38.9088 42.1541V42.3541V42.5541C39.5149 42.5541 40.1261 42.4718 40.7112 42.2806L40.649 42.0905ZM38.9088 42.3541V42.1541H28.484V42.3541V42.5541H38.9088V42.3541ZM28.484 42.3541V42.1541C27.4787 42.1541 26.598 41.9135 25.8808 41.4719L25.776 41.6422L25.6711 41.8125C26.4591 42.2977 27.4144 42.5541 28.484 42.5541V42.3541ZM25.776 41.6422L25.881 41.472C25.5229 41.2509 25.4445 40.7218 25.7269 40.3699L25.5709 40.2448L25.4149 40.1196C24.9985 40.6383 25.0864 41.4515 25.6709 41.8124L25.776 41.6422ZM25.5709 40.2448L25.7268 40.37C26.312 39.6417 26.8899 38.9109 27.4719 38.1744L27.315 38.0504L27.1581 37.9264C26.576 38.663 25.999 39.3926 25.415 40.1195L25.5709 40.2448ZM27.315 38.0504L27.4722 38.1741C28.0232 37.4742 28.4667 37.0467 28.8589 36.8333C29.2351 36.6285 29.5652 36.6196 29.9233 36.7741L30.0025 36.5905L30.0818 36.4068C29.6091 36.2029 29.1501 36.2194 28.6677 36.4819C28.2011 36.7358 27.7163 37.2175 27.1579 37.9267L27.315 38.0504ZM30.0025 36.5905L29.9221 36.7736C30.2403 36.9134 30.5652 37.1258 30.9151 37.3617L31.0269 37.1959L31.1388 37.0301C30.7921 36.7963 30.4389 36.5637 30.083 36.4073L30.0025 36.5905ZM31.0269 37.1959L30.9145 37.3613C31.3754 37.6745 31.9559 38.0684 32.6436 38.2564C33.342 38.4473 34.1433 38.4245 35.0408 37.9275L34.9439 37.7526L34.8471 37.5776C34.0457 38.0213 33.3524 38.0355 32.749 37.8706C32.1349 37.7027 31.6064 37.3479 31.1394 37.0305L31.0269 37.1959ZM34.9439 37.7526L35.0417 37.927C36.2641 37.2423 36.9636 36.0673 37.5487 35.0981L37.3775 34.9948L37.2063 34.8914C36.6123 35.8752 35.9619 36.9531 34.8462 37.5781L34.9439 37.7526ZM37.3775 34.9948L37.5483 35.0989C37.7929 34.6977 38.0154 34.3136 38.2745 33.9645L38.1139 33.8453L37.9532 33.7262C37.6802 34.0942 37.4445 34.5007 37.2068 34.8906L37.3775 34.9948ZM29.6842 25.0367V25.2367C31.2777 25.2367 32.575 26.5349 32.575 28.1295H32.775H32.975C32.975 26.3143 31.4989 24.8367 29.6842 24.8367V25.0367ZM32.775 28.1295L32.575 28.1295C32.5748 29.7239 31.2777 31.0213 29.6842 31.0213V31.2213V31.4213C31.4987 31.4213 32.9748 29.9447 32.975 28.1295L32.775 28.1295ZM29.6842 31.2213L29.6842 31.0213C28.0896 31.0212 26.7935 29.7239 26.7934 28.1295L26.5934 28.1295L26.3934 28.1295C26.3935 29.9446 27.8684 31.4212 29.6842 31.4213L29.6842 31.2213ZM26.5934 28.1295H26.7934C26.7934 26.535 28.0895 25.2368 29.6842 25.2367L29.6842 25.0367L29.6842 24.8367C27.8683 24.8368 26.3934 26.3144 26.3934 28.1295H26.5934Z" fill="url(#paint3_linear_22603_491)" fill-opacity="0.5" fill-rule="evenodd" mask="url(#path-5-inside-2_22603_491)"></path>
</g>
<defs>
<filter color-interpolation-filters="sRGB" filterunits="userSpaceOnUse" height="54.8792" id="filter0_f_22603_491" width="55.3984" x="0.415527" y="0.563721">
<feflood flood-opacity="0" result="BackgroundImageFix"></feflood>
<feblend in="SourceGraphic" in2="BackgroundImageFix" mode="normal" result="shape"></feblend>
<fegaussianblur result="effect1_foregroundBlur_22603_491" stddeviation="9.5"></fegaussianblur>
</filter>
<clippath id="bgblur_0_22603_491_clip_path" transform="translate(-14.645 -13.0892)">
<path d="M39.3113 20.0892H28.6302C24.4539 20.0892 21.645 23.0213 21.645 27.3824V37.4476C21.645 41.7964 24.4539 44.7285 28.6302 44.7285H39.3113C43.4877 44.7285 46.2842 41.7964 46.2842 37.4476V27.3824C46.2842 23.0213 43.4877 20.0892 39.3113 20.0892Z"></path>
</clippath>
<filter color-interpolation-filters="sRGB" filterunits="userSpaceOnUse" height="47.3174" id="filter2_d_22603_491" width="48.5547" x="10.3562" y="10.0367">
<feflood flood-opacity="0" result="BackgroundImageFix"></feflood>
<fecolormatrix in="SourceAlpha" result="hardAlpha" type="matrix" values="0 0 0 0 0 0 0 0 0 0 0 0 0 0 0 0 0 0 127 0"></fecolormatrix>
<feoffset dx="5" dy="5"></feoffset>
<fegaussianblur stddeviation="5"></fegaussianblur>
<fecolormatrix type="matrix" values="0 0 0 0 0.15375 0 0 0 0 0.522433 0 0 0 0 0.9 0 0 0 0.5 0"></fecolormatrix>
<feblend in2="BackgroundImageFix" mode="normal" result="effect1_dropShadow_22603_491"></feblend>
<feblend in="SourceGraphic" in2="effect1_dropShadow_22603_491" mode="normal" result="shape"></feblend>
</filter>
<clippath id="bgblur_1_22603_491_clip_path" transform="translate(-10.3562 -10.0367)">
<path clip-rule="evenodd" d="M38.1139 33.8453C38.39 33.4739 39.4139 32.3121 40.7398 33.1393C41.5844 33.6601 42.2952 34.3643 43.0553 35.1188C43.3449 35.4071 43.551 35.7354 43.6891 36.0875C44.1032 37.1495 43.8886 38.4263 43.4459 39.4781C42.921 40.7292 41.9153 41.6768 40.649 42.0905C40.0868 42.2742 39.4971 42.3541 38.9088 42.3541H28.484C27.4466 42.3541 26.5285 42.1056 25.776 41.6422C25.3046 41.3512 25.2215 40.68 25.5709 40.2448C26.1555 39.5171 26.7329 38.787 27.315 38.0504C28.4244 36.6413 29.1717 36.232 30.0025 36.5905C30.3396 36.7385 30.6787 36.961 31.0269 37.1959C31.9549 37.8265 33.245 38.6933 34.9439 37.7526C36.113 37.0977 36.788 35.9712 37.3775 34.9948C37.6187 34.5992 37.8478 34.2039 38.1139 33.8453ZM29.6842 25.0367C31.3883 25.0367 32.775 26.4246 32.775 28.1295C32.7748 29.8343 31.3882 31.2213 29.6842 31.2213C27.979 31.2212 26.5935 29.8342 26.5934 28.1295C26.5934 26.4247 27.9789 25.0368 29.6842 25.0367Z" fill-rule="evenodd"></path>
</clippath>
<lineargradient gradientunits="userSpaceOnUse" id="paint0_linear_22603_491" x1="15.3167" x2="43.6416" y1="18.8387" y2="28.366">
<stop stop-color="#7A39FD"></stop>
<stop offset="1" stop-color="#6C3AFF"></stop>
</lineargradient>
<lineargradient gradientunits="userSpaceOnUse" id="paint1_linear_22603_491" x1="25.5672" x2="41.2844" y1="22.9597" y2="42.4259">
<stop stop-color="white" stop-opacity="0.25"></stop>
<stop offset="1" stop-color="white" stop-opacity="0.06"></stop>
</lineargradient>
<lineargradient gradientunits="userSpaceOnUse" id="paint2_linear_22603_491" x1="42.5953" x2="21.9305" y1="28.1639" y2="28.8858">
<stop stop-color="white"></stop>
<stop offset="1" stop-color="white" stop-opacity="0.2"></stop>
</lineargradient>
<lineargradient gradientunits="userSpaceOnUse" id="paint3_linear_22603_491" x1="27.3549" x2="43.1103" y1="30.8459" y2="30.9391">
<stop stop-color="white"></stop>
<stop offset="1" stop-color="white" stop-opacity="0"></stop>
</lineargradient>
</defs>
</svg>