<svg fill="none" height="44" viewbox="0 0 44 44" width="44" xmlns="http://www.w3.org/2000/svg">
<g clip-path="url(#clip0_22603_297)">
<rect fill="white" fill-opacity="0.01" height="44" width="44"></rect>
<foreignobject height="49.0007" width="47.6479" x="-7.33447" y="-6.3338">
<div style="backdrop-filter:blur(6.5px);clip-path:url(#bgblur_1_22603_297_clip_path);height:100%;width:100%" xmlns="http://www.w3.org/1999/xhtml">
</div>
</foreignobject>
<path d="M27.0058 20.8921C26.7845 20.5471 26.4702 20.2021 26.0626 19.9836C25.7366 19.8226 25.527 19.5581 25.3407 19.2476C24.7469 18.2586 25.0962 16.959 26.0859 16.3725C27.2503 15.717 27.6229 14.2564 26.9476 13.1179L26.1674 11.7609C25.5037 10.6223 24.0483 10.2198 22.8955 10.8868C21.8709 11.4388 20.5552 11.0708 19.9613 10.0933C19.775 9.77129 19.6702 9.42628 19.6935 9.08127C19.7285 8.63276 19.5887 8.20725 19.3791 7.86224C18.9483 7.14921 18.1682 6.6662 17.3066 6.6662H15.6648C14.8148 6.6892 14.0347 7.14921 13.6039 7.86224C13.3826 8.20725 13.2546 8.63276 13.2778 9.08127C13.3011 9.42628 13.1963 9.77129 13.01 10.0933C12.4162 11.0708 11.1005 11.4388 10.0875 10.8868C8.92309 10.2198 7.47927 10.6223 6.80394 11.7609L6.02381 13.1179C5.36012 14.2564 5.73271 15.717 6.88544 16.3725C7.87516 16.959 8.22447 18.2586 7.64228 19.2476C7.44434 19.5581 7.23475 19.8226 6.90873 19.9836C6.51284 20.2021 6.16353 20.5471 5.97723 20.8921C5.54642 21.6052 5.5697 22.5022 6.00052 23.2497L6.80394 24.6298C7.23475 25.3658 8.03817 25.8258 8.87652 25.8258C9.2724 25.8258 9.73815 25.7108 10.1108 25.4808C10.4018 25.2853 10.7512 25.2163 11.1354 25.2163C12.2881 25.2163 13.2546 26.1708 13.2778 27.3093C13.2778 28.6319 14.3491 29.6669 15.6997 29.6669H17.2833C18.6223 29.6669 19.6935 28.6319 19.6935 27.3093C19.7285 26.1708 20.6949 25.2163 21.8476 25.2163C22.2202 25.2163 22.5695 25.2853 22.8723 25.4808C23.2449 25.7108 23.699 25.8258 24.1065 25.8258C24.9332 25.8258 25.7366 25.3658 26.1674 24.6298L26.9825 23.2497C27.4017 22.4792 27.4366 21.6052 27.0058 20.8921Z" data-figma-bg-blur-radius="13" fill="url(#paint0_linear_22603_297)"></path>
<g filter="url(#filter1_f_22603_297)" opacity="0.5">
<path d="M21.9855 19.6342C21.8714 19.4566 21.7093 19.279 21.4992 19.1666C21.3311 19.0837 21.223 18.9475 21.127 18.7877C20.8208 18.2787 21.0009 17.6098 21.5112 17.3079C22.1116 16.9705 22.3037 16.2188 21.9555 15.6327L21.5532 14.9343C21.211 14.3483 20.4605 14.1411 19.8662 14.4844C19.3378 14.7685 18.6594 14.5791 18.3532 14.076C18.2571 13.9102 18.2031 13.7326 18.2151 13.5551C18.2331 13.3242 18.1611 13.1052 18.053 12.9276C17.8309 12.5606 17.4286 12.312 16.9843 12.312H16.1378C15.6995 12.3239 15.2973 12.5606 15.0751 12.9276C14.9611 13.1052 14.895 13.3242 14.907 13.5551C14.919 13.7326 14.865 13.9102 14.7689 14.076C14.4628 14.5791 13.7843 14.7685 13.262 14.4844C12.6616 14.1411 11.9171 14.3483 11.5689 14.9343L11.1667 15.6327C10.8245 16.2188 11.0166 16.9705 11.611 17.3079C12.1213 17.6098 12.3014 18.2787 12.0012 18.7877C11.8991 18.9475 11.7911 19.0837 11.623 19.1666C11.4188 19.279 11.2387 19.4566 11.1427 19.6342C10.9205 20.0012 10.9325 20.4629 11.1547 20.8476L11.5689 21.558C11.7911 21.9368 12.2053 22.1736 12.6376 22.1736C12.8417 22.1736 13.0819 22.1144 13.274 21.996C13.4241 21.8954 13.6042 21.8598 13.8023 21.8598C14.3967 21.8598 14.895 22.3511 14.907 22.9372C14.907 23.6179 15.4594 24.1506 16.1558 24.1506H16.9723C17.6628 24.1506 18.2151 23.6179 18.2151 22.9372C18.2331 22.3511 18.7314 21.8598 19.3258 21.8598C19.5179 21.8598 19.6981 21.8954 19.8542 21.996C20.0463 22.1144 20.2804 22.1736 20.4906 22.1736C20.9168 22.1736 21.3311 21.9368 21.5532 21.558L21.9735 20.8476C22.1896 20.451 22.2076 20.0012 21.9855 19.6342Z" fill="#E31352"></path>
</g>
<foreignobject height="41.6234" width="40.2422" x="5.09229" y="2.71039">
<div style="backdrop-filter:blur(3px);clip-path:url(#bgblur_2_22603_297_clip_path);height:100%;width:100%" xmlns="http://www.w3.org/1999/xhtml">
</div>
</foreignobject>
<g data-figma-bg-blur-radius="6">
<mask fill="black" height="30" id="path-3-outside-1_22603_297" maskunits="userSpaceOnUse" width="29" x="11.0923" y="8.71039">
<rect fill="white" height="30" width="29" x="11.0923" y="8.71039"></rect>
<path d="M37.9618 26.7955C37.6936 26.3811 37.3125 25.9668 36.8185 25.7043C36.4233 25.511 36.1692 25.1933 35.9433 24.8204C35.2235 23.6326 35.6469 22.0719 36.8467 21.3675C38.2582 20.5802 38.7099 18.8261 37.8912 17.4588L36.9455 15.829C36.1409 14.4616 34.3766 13.9782 32.9792 14.7793C31.7371 15.4422 30.1421 15.0003 29.4222 13.8263C29.1964 13.4395 29.0694 13.0252 29.0976 12.6108C29.1399 12.0722 28.9705 11.5612 28.7165 11.1468C28.1942 10.2905 27.2485 9.71039 26.204 9.71039H24.2138C23.1834 9.73801 22.2377 10.2905 21.7155 11.1468C21.4473 11.5612 21.292 12.0722 21.3202 12.6108C21.3485 13.0252 21.2214 13.4395 20.9956 13.8263C20.2757 15.0003 18.6807 15.4422 17.4527 14.7793C16.0412 13.9782 14.291 14.4616 13.4723 15.829L12.5266 17.4588C11.7221 18.8261 12.1737 20.5802 13.5711 21.3675C14.7709 22.0719 15.1943 23.6326 14.4886 24.8204C14.2486 25.1933 13.9946 25.511 13.5993 25.7043C13.1194 25.9668 12.696 26.3811 12.4701 26.7955C11.9479 27.6518 11.9761 28.7291 12.4984 29.6269L13.4723 31.2843C13.9946 32.1682 14.9685 32.7207 15.9848 32.7207C16.4647 32.7207 17.0293 32.5826 17.481 32.3063C17.8338 32.0715 18.2573 31.9887 18.7231 31.9887C20.1205 31.9887 21.292 33.135 21.3202 34.5024C21.3202 36.0907 22.6188 37.3338 24.2561 37.3338H26.1758C27.799 37.3338 29.0976 36.0907 29.0976 34.5024C29.1399 33.135 30.3115 31.9887 31.7088 31.9887C32.1605 31.9887 32.584 32.0715 32.951 32.3063C33.4026 32.5826 33.9531 32.7207 34.4472 32.7207C35.4493 32.7207 36.4233 32.1682 36.9455 31.2843L37.9336 29.6269C38.4417 28.7015 38.484 27.6518 37.9618 26.7955Z"></path>
</mask>
<path d="M37.9618 26.7955C37.6936 26.3811 37.3125 25.9668 36.8185 25.7043C36.4233 25.511 36.1692 25.1933 35.9433 24.8204C35.2235 23.6326 35.6469 22.0719 36.8467 21.3675C38.2582 20.5802 38.7099 18.8261 37.8912 17.4588L36.9455 15.829C36.1409 14.4616 34.3766 13.9782 32.9792 14.7793C31.7371 15.4422 30.1421 15.0003 29.4222 13.8263C29.1964 13.4395 29.0694 13.0252 29.0976 12.6108C29.1399 12.0722 28.9705 11.5612 28.7165 11.1468C28.1942 10.2905 27.2485 9.71039 26.204 9.71039H24.2138C23.1834 9.73801 22.2377 10.2905 21.7155 11.1468C21.4473 11.5612 21.292 12.0722 21.3202 12.6108C21.3485 13.0252 21.2214 13.4395 20.9956 13.8263C20.2757 15.0003 18.6807 15.4422 17.4527 14.7793C16.0412 13.9782 14.291 14.4616 13.4723 15.829L12.5266 17.4588C11.7221 18.8261 12.1737 20.5802 13.5711 21.3675C14.7709 22.0719 15.1943 23.6326 14.4886 24.8204C14.2486 25.1933 13.9946 25.511 13.5993 25.7043C13.1194 25.9668 12.696 26.3811 12.4701 26.7955C11.9479 27.6518 11.9761 28.7291 12.4984 29.6269L13.4723 31.2843C13.9946 32.1682 14.9685 32.7207 15.9848 32.7207C16.4647 32.7207 17.0293 32.5826 17.481 32.3063C17.8338 32.0715 18.2573 31.9887 18.7231 31.9887C20.1205 31.9887 21.292 33.135 21.3202 34.5024C21.3202 36.0907 22.6188 37.3338 24.2561 37.3338H26.1758C27.799 37.3338 29.0976 36.0907 29.0976 34.5024C29.1399 33.135 30.3115 31.9887 31.7088 31.9887C32.1605 31.9887 32.584 32.0715 32.951 32.3063C33.4026 32.5826 33.9531 32.7207 34.4472 32.7207C35.4493 32.7207 36.4233 32.1682 36.9455 31.2843L37.9336 29.6269C38.4417 28.7015 38.484 27.6518 37.9618 26.7955Z" fill="#FF749F" fill-opacity="0.35"></path>
<path d="M37.1223 27.3388C37.4224 27.8025 38.0415 27.9351 38.5051 27.635C38.9688 27.3349 39.1014 26.7157 38.8013 26.2521L37.9618 26.7955L37.1223 27.3388ZM36.8185 25.7043L37.2876 24.8212C37.2778 24.816 37.2679 24.811 37.2579 24.8061L36.8185 25.7043ZM35.9433 24.8204L36.7987 24.3024L36.7985 24.3021L35.9433 24.8204ZM36.8467 21.3675L36.3596 20.4941C36.3532 20.4977 36.3468 20.5014 36.3404 20.5051L36.8467 21.3675ZM37.8912 17.4588L37.0262 17.9607L37.0332 17.9724L37.8912 17.4588ZM36.9455 15.829L37.8105 15.3271L37.8074 15.3218L36.9455 15.829ZM32.9792 14.7793L33.4501 15.6615C33.459 15.6567 33.4678 15.6519 33.4765 15.6468L32.9792 14.7793ZM29.4222 13.8263L28.5587 14.3306C28.5623 14.3367 28.566 14.3429 28.5697 14.349L29.4222 13.8263ZM29.0976 12.6108L28.1006 12.5325L28.0999 12.5429L29.0976 12.6108ZM28.7165 11.1468L27.8627 11.6675L27.864 11.6695L28.7165 11.1468ZM24.2138 9.71039V8.71039C24.2049 8.71039 24.1959 8.71051 24.187 8.71075L24.2138 9.71039ZM21.7155 11.1468L22.555 11.6902C22.5598 11.6827 22.5646 11.6751 22.5692 11.6675L21.7155 11.1468ZM21.3202 12.6108L20.3216 12.6632C20.3219 12.6684 20.3222 12.6736 20.3225 12.6788L21.3202 12.6108ZM20.9956 13.8263L21.8481 14.349C21.8518 14.3429 21.8555 14.3367 21.8591 14.3306L20.9956 13.8263ZM17.4527 14.7793L16.9591 15.649C16.9653 15.6525 16.9715 15.6559 16.9777 15.6592L17.4527 14.7793ZM13.4723 15.829L12.6143 15.3152L12.6074 15.3271L13.4723 15.829ZM12.5266 17.4588L13.3885 17.9659L13.3915 17.9606L12.5266 17.4588ZM13.5711 21.3675L14.0774 20.5051C14.0723 20.5021 14.0671 20.4991 14.062 20.4962L13.5711 21.3675ZM14.4886 24.8204L15.3295 25.3615C15.336 25.3515 15.3422 25.3414 15.3483 25.3312L14.4886 24.8204ZM13.5993 25.7043L13.1599 24.8061C13.1463 24.8127 13.1328 24.8197 13.1196 24.8269L13.5993 25.7043ZM12.4701 26.7955L13.3239 27.3161C13.3323 27.3023 13.3404 27.2883 13.3482 27.274L12.4701 26.7955ZM12.4984 29.6269L11.634 30.1297L11.6362 30.1335L12.4984 29.6269ZM13.4723 31.2843L12.6101 31.7909L12.6113 31.7929L13.4723 31.2843ZM17.481 32.3063L18.0027 33.1594C18.0136 33.1528 18.0243 33.1459 18.0349 33.1389L17.481 32.3063ZM21.3202 34.5024H22.3202C22.3202 34.4955 22.3202 34.4886 22.32 34.4818L21.3202 34.5024ZM29.0976 34.5024L28.0981 34.4714C28.0977 34.4818 28.0976 34.4921 28.0976 34.5024H29.0976ZM32.951 32.3063L32.412 33.1487C32.4177 33.1523 32.4235 33.1559 32.4292 33.1594L32.951 32.3063ZM36.9455 31.2843L36.0865 30.7722L36.0845 30.7756L36.9455 31.2843ZM37.9336 29.6269L38.7925 30.1389C38.7985 30.1288 38.8044 30.1185 38.8101 30.1082L37.9336 29.6269ZM38.8155 26.2748C38.528 25.8033 37.9126 25.6541 37.4411 25.9417C36.9696 26.2293 36.8205 26.8446 37.108 27.3161L37.9618 26.7955L38.8155 26.2748ZM37.9618 26.7955L38.8013 26.2521C38.4701 25.7404 37.9736 25.1856 37.2876 24.8212L36.8185 25.7043L36.3494 26.5875C36.6514 26.7479 36.9171 27.0218 37.1223 27.3388L37.9618 26.7955ZM36.8185 25.7043L37.2579 24.8061C37.1173 24.7373 36.9868 24.613 36.7987 24.3024L35.9433 24.8204L35.088 25.3384C35.3516 25.7737 35.7292 26.2847 36.379 26.6026L36.8185 25.7043ZM35.9433 24.8204L36.7985 24.3021C36.3787 23.6093 36.6158 22.6626 37.353 22.2298L36.8467 21.3675L36.3404 20.5051C34.6781 21.4811 34.0683 23.6558 35.0881 25.3387L35.9433 24.8204ZM36.8467 21.3675L37.3338 22.2408C39.2431 21.1759 39.8548 18.7917 38.7492 16.9451L37.8912 17.4588L37.0332 17.9724C37.5649 18.8605 37.2733 19.9845 36.3596 20.4941L36.8467 21.3675ZM37.8912 17.4588L38.7561 16.9569L37.8104 15.3271L36.9455 15.829L36.0806 16.3309L37.0263 17.9606L37.8912 17.4588ZM36.9455 15.829L37.8074 15.3218C36.7271 13.4858 34.3581 12.8361 32.4819 13.9117L32.9792 14.7793L33.4765 15.6468C34.395 15.1203 35.5548 15.4374 36.0836 16.3361L36.9455 15.829ZM32.9792 14.7793L32.5083 13.8971C31.7317 14.3116 30.7172 14.0252 30.2747 13.3035L29.4222 13.8263L28.5697 14.349C29.5669 15.9753 31.7425 16.5729 33.4501 15.6615L32.9792 14.7793ZM29.4222 13.8263L30.2858 13.322C30.1309 13.0568 30.0842 12.8411 30.0953 12.6788L29.0976 12.6108L28.0999 12.5429C28.0545 13.2093 28.2618 13.8223 28.5587 14.3306L29.4222 13.8263ZM29.0976 12.6108L30.0945 12.6892C30.1571 11.8924 29.9056 11.1731 29.569 10.6241L28.7165 11.1468L27.864 11.6695C28.0355 11.9492 28.1227 12.252 28.1007 12.5325L29.0976 12.6108ZM28.7165 11.1468L29.5702 10.6261C28.8796 9.49374 27.6218 8.71039 26.204 8.71039V9.71039V10.7104C26.8752 10.7104 27.5088 11.0872 27.8627 11.6675L28.7165 11.1468ZM26.204 9.71039V8.71039H24.2138V9.71039V10.7104H26.204V9.71039ZM24.2138 9.71039L24.187 8.71075C22.8195 8.74741 21.5616 9.47859 20.8617 10.6261L21.7155 11.1468L22.5692 11.6675C22.9139 11.1024 23.5473 10.7286 24.2406 10.71L24.2138 9.71039ZM21.7155 11.1468L20.876 10.6034C20.5017 11.1817 20.2816 11.8993 20.3216 12.6632L21.3202 12.6108L22.3189 12.5585C22.3024 12.2451 22.3929 11.9406 22.555 11.6902L21.7155 11.1468ZM21.3202 12.6108L20.3225 12.6788C20.3336 12.8411 20.2869 13.0568 20.1321 13.322L20.9956 13.8263L21.8591 14.3306C22.156 13.8223 22.3633 13.2093 22.3179 12.5429L21.3202 12.6108ZM20.9956 13.8263L20.1431 13.3035C19.6986 14.0285 18.685 14.3081 17.9278 13.8993L17.4527 14.7793L16.9777 15.6592C18.6765 16.5764 20.8529 15.9721 21.8481 14.349L20.9956 13.8263ZM17.4527 14.7793L17.9463 13.9096C16.0562 12.8368 13.7084 13.488 12.6143 15.3153L13.4723 15.829L14.3303 16.3427C14.8736 15.4352 16.0263 15.1196 16.9591 15.649L17.4527 14.7793ZM13.4723 15.829L12.6074 15.3271L11.6617 16.9569L12.5266 17.4588L13.3915 17.9606L14.3372 16.3309L13.4723 15.829ZM12.5266 17.4588L11.6647 16.9516C10.5809 18.7937 11.1876 21.1724 13.0803 22.2387L13.5711 21.3675L14.062 20.4962C13.1598 19.988 12.8632 18.8585 13.3885 17.9659L12.5266 17.4588ZM13.5711 21.3675L13.0648 22.2298C13.802 22.6626 14.0424 23.6136 13.6289 24.3096L14.4886 24.8204L15.3483 25.3312C16.3463 23.6516 15.7398 21.4811 14.0774 20.5051L13.5711 21.3675ZM14.4886 24.8204L13.6476 24.2793C13.4349 24.61 13.3032 24.7359 13.1599 24.8061L13.5993 25.7043L14.0388 26.6026C14.6859 26.286 15.0624 25.7766 15.3295 25.3615L14.4886 24.8204ZM13.5993 25.7043L13.1196 24.8269C12.4916 25.1703 11.9201 25.715 11.5921 26.3169L12.4701 26.7955L13.3482 27.274C13.4718 27.0472 13.7473 26.7632 14.0791 26.5817L13.5993 25.7043ZM12.4701 26.7955L11.6164 26.2748C10.8834 27.4767 10.947 28.9487 11.634 30.1297L12.4984 29.6269L13.3628 29.124C13.0053 28.5095 13.0124 27.8269 13.3239 27.3161L12.4701 26.7955ZM12.4984 29.6269L11.6362 30.1335L12.6101 31.7909L13.4723 31.2843L14.3345 30.7776L13.3605 29.1202L12.4984 29.6269ZM13.4723 31.2843L12.6113 31.7929C13.3136 32.9816 14.6151 33.7207 15.9848 33.7207V32.7207V31.7207C15.3219 31.7207 14.6755 31.3548 14.3333 30.7756L13.4723 31.2843ZM15.9848 32.7207V33.7207C16.6311 33.7207 17.3795 33.5406 18.0027 33.1594L17.481 32.3063L16.9592 31.4532C16.6791 31.6246 16.2983 31.7207 15.9848 31.7207V32.7207ZM17.481 32.3063L18.0349 33.1389C18.1633 33.0534 18.3667 32.9887 18.7231 32.9887V31.9887V30.9887C18.1479 30.9887 17.5043 31.0896 16.927 31.4738L17.481 32.3063ZM18.7231 31.9887V32.9887C19.5843 32.9887 20.3036 33.7078 20.3204 34.523L21.3202 34.5024L22.32 34.4818C22.2804 32.5623 20.6567 30.9887 18.7231 30.9887V31.9887ZM21.3202 34.5024H20.3202C20.3202 36.679 22.1032 38.3338 24.2561 38.3338V37.3338V36.3338C23.1344 36.3338 22.3202 35.5025 22.3202 34.5024H21.3202ZM24.2561 37.3338V38.3338H26.1758V37.3338V36.3338H24.2561V37.3338ZM26.1758 37.3338V38.3338C28.3178 38.3338 30.0976 36.6759 30.0976 34.5024H29.0976H28.0976C28.0976 35.5056 27.2802 36.3338 26.1758 36.3338V37.3338ZM29.0976 34.5024L30.0971 34.5333C30.1227 33.7078 30.8498 32.9887 31.7088 32.9887V31.9887V30.9887C29.7731 30.9887 28.1572 32.5622 28.0981 34.4714L29.0976 34.5024ZM31.7088 31.9887V32.9887C32.0426 32.9887 32.2581 33.0502 32.412 33.1487L32.951 32.3063L33.4899 31.464C32.9099 31.0929 32.2785 30.9887 31.7088 30.9887V31.9887ZM32.951 32.3063L32.4292 33.1594C33.0505 33.5394 33.7842 33.7207 34.4472 33.7207V32.7207V31.7207C34.122 31.7207 33.7548 31.6257 33.4727 31.4532L32.951 32.3063ZM34.4472 32.7207V33.7207C35.8054 33.7207 37.1055 32.9793 37.8065 31.7929L36.9455 31.2843L36.0845 30.7756C35.7409 31.3571 35.0932 31.7207 34.4472 31.7207V32.7207ZM36.9455 31.2843L37.8045 31.7963L38.7925 30.1389L37.9336 29.6269L37.0746 29.1148L36.0866 30.7722L36.9455 31.2843ZM37.9336 29.6269L38.8101 30.1082C39.4592 28.926 39.556 27.4888 38.8155 26.2748L37.9618 26.7955L37.108 27.3161C37.4121 27.8147 37.4242 28.4769 37.057 29.1455L37.9336 29.6269Z" fill="url(#paint1_linear_22603_297)" mask="url(#path-3-outside-1_22603_297)"></path>
</g>
<foreignobject height="37.8036" width="37.9751" x="6.2251" y="4.51953">
<div style="backdrop-filter:blur(7.5px);clip-path:url(#bgblur_3_22603_297_clip_path);height:100%;width:100%" xmlns="http://www.w3.org/1999/xhtml">
</div>
</foreignobject>
<g data-figma-bg-blur-radius="15" filter="url(#filter3_d_22603_297)">
<path d="M25.2337 27.3231C23.0177 27.3231 21.2251 25.5967 21.2251 23.4282C21.2251 21.2598 23.0177 19.5195 25.2337 19.5195C27.4498 19.5195 29.2001 21.2598 29.2001 23.4282C29.2001 25.5967 27.4498 27.3231 25.2337 27.3231Z" fill="url(#paint2_linear_22603_297)"></path>
<path d="M25.2339 19.7197C27.3417 19.7198 29.0005 21.373 29.0005 23.4287C29.0002 25.4833 27.3424 27.123 25.2339 27.123C23.1225 27.123 21.4256 25.4806 21.4253 23.4287C21.4253 21.3757 23.1232 19.7197 25.2339 19.7197Z" stroke="url(#paint3_linear_22603_297)" stroke-width="0.4"></path>
</g>
</g>
<defs>
<clippath id="bgblur_1_22603_297_clip_path" transform="translate(7.33447 6.3338)">
<path d="M27.0058 20.8921C26.7845 20.5471 26.4702 20.2021 26.0626 19.9836C25.7366 19.8226 25.527 19.5581 25.3407 19.2476C24.7469 18.2586 25.0962 16.959 26.0859 16.3725C27.2503 15.717 27.6229 14.2564 26.9476 13.1179L26.1674 11.7609C25.5037 10.6223 24.0483 10.2198 22.8955 10.8868C21.8709 11.4388 20.5552 11.0708 19.9613 10.0933C19.775 9.77129 19.6702 9.42628 19.6935 9.08127C19.7285 8.63276 19.5887 8.20725 19.3791 7.86224C18.9483 7.14921 18.1682 6.6662 17.3066 6.6662H15.6648C14.8148 6.6892 14.0347 7.14921 13.6039 7.86224C13.3826 8.20725 13.2546 8.63276 13.2778 9.08127C13.3011 9.42628 13.1963 9.77129 13.01 10.0933C12.4162 11.0708 11.1005 11.4388 10.0875 10.8868C8.92309 10.2198 7.47927 10.6223 6.80394 11.7609L6.02381 13.1179C5.36012 14.2564 5.73271 15.717 6.88544 16.3725C7.87516 16.959 8.22447 18.2586 7.64228 19.2476C7.44434 19.5581 7.23475 19.8226 6.90873 19.9836C6.51284 20.2021 6.16353 20.5471 5.97723 20.8921C5.54642 21.6052 5.5697 22.5022 6.00052 23.2497L6.80394 24.6298C7.23475 25.3658 8.03817 25.8258 8.87652 25.8258C9.2724 25.8258 9.73815 25.7108 10.1108 25.4808C10.4018 25.2853 10.7512 25.2163 11.1354 25.2163C12.2881 25.2163 13.2546 26.1708 13.2778 27.3093C13.2778 28.6319 14.3491 29.6669 15.6997 29.6669H17.2833C18.6223 29.6669 19.6935 28.6319 19.6935 27.3093C19.7285 26.1708 20.6949 25.2163 21.8476 25.2163C22.2202 25.2163 22.5695 25.2853 22.8723 25.4808C23.2449 25.7108 23.699 25.8258 24.1065 25.8258C24.9332 25.8258 25.7366 25.3658 26.1674 24.6298L26.9825 23.2497C27.4017 22.4792 27.4366 21.6052 27.0058 20.8921Z"></path>
</clippath>
<filter color-interpolation-filters="sRGB" filterunits="userSpaceOnUse" height="43.8386" id="filter1_f_22603_297" width="43.1621" x="-5.01807" y="-3.68799">
<feflood flood-opacity="0" result="BackgroundImageFix"></feflood>
<feblend in="SourceGraphic" in2="BackgroundImageFix" mode="normal" result="shape"></feblend>
<fegaussianblur result="effect1_foregroundBlur_22603_297" stddeviation="8"></fegaussianblur>
</filter>
<clippath id="bgblur_2_22603_297_clip_path" transform="translate(-5.09229 -2.71039)">
<path d="M37.9618 26.7955C37.6936 26.3811 37.3125 25.9668 36.8185 25.7043C36.4233 25.511 36.1692 25.1933 35.9433 24.8204C35.2235 23.6326 35.6469 22.0719 36.8467 21.3675C38.2582 20.5802 38.7099 18.8261 37.8912 17.4588L36.9455 15.829C36.1409 14.4616 34.3766 13.9782 32.9792 14.7793C31.7371 15.4422 30.1421 15.0003 29.4222 13.8263C29.1964 13.4395 29.0694 13.0252 29.0976 12.6108C29.1399 12.0722 28.9705 11.5612 28.7165 11.1468C28.1942 10.2905 27.2485 9.71039 26.204 9.71039H24.2138C23.1834 9.73801 22.2377 10.2905 21.7155 11.1468C21.4473 11.5612 21.292 12.0722 21.3202 12.6108C21.3485 13.0252 21.2214 13.4395 20.9956 13.8263C20.2757 15.0003 18.6807 15.4422 17.4527 14.7793C16.0412 13.9782 14.291 14.4616 13.4723 15.829L12.5266 17.4588C11.7221 18.8261 12.1737 20.5802 13.5711 21.3675C14.7709 22.0719 15.1943 23.6326 14.4886 24.8204C14.2486 25.1933 13.9946 25.511 13.5993 25.7043C13.1194 25.9668 12.696 26.3811 12.4701 26.7955C11.9479 27.6518 11.9761 28.7291 12.4984 29.6269L13.4723 31.2843C13.9946 32.1682 14.9685 32.7207 15.9848 32.7207C16.4647 32.7207 17.0293 32.5826 17.481 32.3063C17.8338 32.0715 18.2573 31.9887 18.7231 31.9887C20.1205 31.9887 21.292 33.135 21.3202 34.5024C21.3202 36.0907 22.6188 37.3338 24.2561 37.3338H26.1758C27.799 37.3338 29.0976 36.0907 29.0976 34.5024C29.1399 33.135 30.3115 31.9887 31.7088 31.9887C32.1605 31.9887 32.584 32.0715 32.951 32.3063C33.4026 32.5826 33.9531 32.7207 34.4472 32.7207C35.4493 32.7207 36.4233 32.1682 36.9455 31.2843L37.9336 29.6269C38.4417 28.7015 38.484 27.6518 37.9618 26.7955Z"></path>
</clippath>
<filter color-interpolation-filters="sRGB" filterunits="userSpaceOnUse" height="37.8036" id="filter3_d_22603_297" width="37.9751" x="6.2251" y="4.51953">
<feflood flood-opacity="0" result="BackgroundImageFix"></feflood>
<fecolormatrix in="SourceAlpha" result="hardAlpha" type="matrix" values="0 0 0 0 0 0 0 0 0 0 0 0 0 0 0 0 0 0 127 0"></fecolormatrix>
<feoffset dx="5" dy="5"></feoffset>
<fegaussianblur stddeviation="5"></fegaussianblur>
<fecolormatrix type="matrix" values="0 0 0 0 1 0 0 0 0 0.321569 0 0 0 0 0.54902 0 0 0 0.5 0"></fecolormatrix>
<feblend in2="BackgroundImageFix" mode="normal" result="effect1_dropShadow_22603_297"></feblend>
<feblend in="SourceGraphic" in2="effect1_dropShadow_22603_297" mode="normal" result="shape"></feblend>
</filter>
<clippath id="bgblur_3_22603_297_clip_path" transform="translate(-6.2251 -4.51953)">
<path d="M25.2337 27.3231C23.0177 27.3231 21.2251 25.5967 21.2251 23.4282C21.2251 21.2598 23.0177 19.5195 25.2337 19.5195C27.4498 19.5195 29.2001 21.2598 29.2001 23.4282C29.2001 25.5967 27.4498 27.3231 25.2337 27.3231Z"></path>
</clippath>
<lineargradient gradientunits="userSpaceOnUse" id="paint0_linear_22603_297" x1="18.0831" x2="-1.36312" y1="19.7068" y2="28.6058">
<stop stop-color="#FF759F"></stop>
<stop offset="1" stop-color="#FF196E"></stop>
</lineargradient>
<lineargradient gradientunits="userSpaceOnUse" id="paint1_linear_22603_297" x1="16.2696" x2="34.0594" y1="12.9286" y2="33.8599">
<stop stop-color="white" stop-opacity="0.25"></stop>
<stop offset="1" stop-color="white" stop-opacity="0"></stop>
</lineargradient>
<lineargradient gradientunits="userSpaceOnUse" id="paint2_linear_22603_297" x1="28.6346" x2="19.7517" y1="20.9287" y2="21.2247">
<stop stop-color="white"></stop>
<stop offset="1" stop-color="white" stop-opacity="0.2"></stop>
</lineargradient>
<lineargradient gradientunits="userSpaceOnUse" id="paint3_linear_22603_297" x1="22.4946" x2="27.4486" y1="20.4287" y2="26.6991">
<stop stop-color="white" stop-opacity="0.25"></stop>
<stop offset="1" stop-color="white" stop-opacity="0"></stop>
</lineargradient>
<clippath id="clip0_22603_297">
<rect fill="white" height="44" width="44"></rect>
</clippath>
</defs>
</svg>