<svg fill="none" height="72" viewbox="0 0 72 72" width="72" xmlns="http://www.w3.org/2000/svg">
<rect fill="white" fill-opacity="0.01" height="72" width="72"></rect>
<path d="M34.0462 12.8879L17.658 19.3313C11.2501 21.8507 8.70921 28.0439 11.3401 34.7353L17.4119 50.1784C20.0353 56.8509 26.1138 59.6552 32.5217 57.1358L48.9099 50.6924C55.3177 48.173 57.8398 41.9872 55.2163 35.3147L49.1445 19.8716C46.5137 13.1802 40.4541 10.3685 34.0462 12.8879Z" fill="url(#paint0_linear_22482_1647)"></path>
<g filter="url(#filter0_f_22482_1647)" opacity="0.5">
<path d="M35.5844 19.6752L23.3104 24.4775C18.8583 26.2194 17.163 29.5258 18.6997 33.4535L23.9044 46.756C25.4663 50.748 28.9352 51.9745 33.3873 50.2325L45.6613 45.4302C50.1852 43.6602 51.8274 40.434 50.2655 36.4419L45.0608 23.1395C43.5241 19.2118 40.1083 17.9052 35.5844 19.6752Z" fill="#30AD31"></path>
</g>
<foreignobject height="66.6216" width="66.6216" x="11.4375" y="9.69653">
<div style="backdrop-filter:blur(6px);clip-path:url(#bgblur_0_22482_1647_clip_path);height:100%;width:100%" xmlns="http://www.w3.org/1999/xhtml">
</div>
</foreignobject>
<g data-figma-bg-blur-radius="12">
<mask fill="black" height="43" id="path-3-outside-1_22482_1647" maskunits="userSpaceOnUse" width="43" x="23.4375" y="21.6965">
<rect fill="white" height="43" width="43" x="23.4375" y="21.6965"></rect>
<path d="M53.5631 22.6965H35.9537C29.0683 22.6965 24.4375 27.5305 24.4375 34.7205V51.3144C24.4375 58.4841 29.0683 63.318 35.9537 63.318H53.5631C60.4484 63.318 65.059 58.4841 65.059 51.3144V34.7205C65.059 27.5305 60.4484 22.6965 53.5631 22.6965Z"></path>
</mask>
<path d="M53.5631 22.6965H35.9537C29.0683 22.6965 24.4375 27.5305 24.4375 34.7205V51.3144C24.4375 58.4841 29.0683 63.318 35.9537 63.318H53.5631C60.4484 63.318 65.059 58.4841 65.059 51.3144V34.7205C65.059 27.5305 60.4484 22.6965 53.5631 22.6965Z" fill="#72DC60" fill-opacity="0.35"></path>
<path d="M53.5631 23.6965C54.1154 23.6965 54.5631 23.2488 54.5631 22.6965C54.5631 22.1442 54.1154 21.6965 53.5631 21.6965V22.6965V23.6965ZM53.5631 21.6965C53.0108 21.6965 52.5631 22.1442 52.5631 22.6965C52.5631 23.2488 53.0108 23.6965 53.5631 23.6965V22.6965V21.6965ZM53.5631 22.6965V21.6965H35.9537V22.6965V23.6965H53.5631V22.6965ZM35.9537 22.6965V21.6965C32.2682 21.6965 29.1182 22.9958 26.8914 25.3205C24.6683 27.6416 23.4375 30.9087 23.4375 34.7205H24.4375H25.4375C25.4375 31.3423 26.5222 28.5974 28.3358 26.704C30.1458 24.8143 32.7538 23.6965 35.9537 23.6965V22.6965ZM24.4375 34.7205H23.4375V51.3144H24.4375H25.4375V34.7205H24.4375ZM24.4375 51.3144H23.4375C23.4375 55.1167 24.6687 58.3788 26.8918 60.697C29.1185 63.0188 32.2683 64.318 35.9537 64.318V63.318V62.318C32.7538 62.318 30.1455 61.2002 28.3353 59.3127C26.5217 57.4215 25.4375 54.6817 25.4375 51.3144H24.4375ZM35.9537 63.318V64.318H53.5631V63.318V62.318H35.9537V63.318ZM53.5631 63.318V64.318C57.2487 64.318 60.3939 63.0187 62.6157 60.6961C64.8336 58.3774 66.059 55.1155 66.059 51.3144H65.059H64.059C64.059 54.683 62.9791 57.4228 61.1704 59.3136C59.3655 61.2004 56.7628 62.318 53.5631 62.318V63.318ZM65.059 51.3144H66.059V34.7205H65.059H64.059V51.3144H65.059ZM65.059 34.7205H66.059C66.059 30.9099 64.8341 27.6429 62.6161 25.3215C60.3942 22.9959 57.2487 21.6965 53.5631 21.6965V22.6965V23.6965C56.7628 23.6965 59.3652 24.8141 61.17 26.7031C62.9786 28.5961 64.059 31.341 64.059 34.7205H65.059Z" fill="url(#paint1_linear_22482_1647)" mask="url(#path-3-outside-1_22482_1647)"></path>
</g>
<foreignobject height="40.5676" width="53.3999" x="17.9663" y="22.6418">
<div style="backdrop-filter:blur(7.5px);clip-path:url(#bgblur_1_22482_1647_clip_path);height:100%;width:100%" xmlns="http://www.w3.org/1999/xhtml">
</div>
</foreignobject>
<g data-figma-bg-blur-radius="15" filter="url(#filter2_d_22482_1647)">
<mask fill="white" id="path-5-inside-2_22482_1647">
<path clip-rule="evenodd" d="M54.843 48.2095C55.6839 48.2095 56.3663 47.5271 56.3663 46.6862V42.9247C56.3663 42.0838 55.6839 41.4014 54.843 41.4014H43.2821C42.6241 39.2342 40.6296 37.6418 38.2491 37.6418C35.3366 37.6418 32.9663 40.0121 32.9663 42.9247C32.9663 45.8393 35.3366 48.2095 38.2491 48.2095C40.6296 48.2095 42.6241 46.6172 43.2821 44.448H47.5718V46.6862C47.5718 47.5271 48.2542 48.2095 49.0951 48.2095C49.9359 48.2095 50.6184 47.5271 50.6184 46.6862V44.448H53.3197V46.6862C53.3197 47.5271 54.0021 48.2095 54.843 48.2095ZM36.0109 42.9245C36.0109 41.6896 37.0162 40.6862 38.2491 40.6862C39.482 40.6862 40.4873 41.6896 40.4873 42.9245C40.4873 44.1573 39.482 45.1607 38.2491 45.1607C37.0162 45.1607 36.0109 44.1573 36.0109 42.9245Z" fill-rule="evenodd"></path>
</mask>
<path clip-rule="evenodd" d="M54.843 48.2095C55.6839 48.2095 56.3663 47.5271 56.3663 46.6862V42.9247C56.3663 42.0838 55.6839 41.4014 54.843 41.4014H43.2821C42.6241 39.2342 40.6296 37.6418 38.2491 37.6418C35.3366 37.6418 32.9663 40.0121 32.9663 42.9247C32.9663 45.8393 35.3366 48.2095 38.2491 48.2095C40.6296 48.2095 42.6241 46.6172 43.2821 44.448H47.5718V46.6862C47.5718 47.5271 48.2542 48.2095 49.0951 48.2095C49.9359 48.2095 50.6184 47.5271 50.6184 46.6862V44.448H53.3197V46.6862C53.3197 47.5271 54.0021 48.2095 54.843 48.2095ZM36.0109 42.9245C36.0109 41.6896 37.0162 40.6862 38.2491 40.6862C39.482 40.6862 40.4873 41.6896 40.4873 42.9245C40.4873 44.1573 39.482 45.1607 38.2491 45.1607C37.0162 45.1607 36.0109 44.1573 36.0109 42.9245Z" fill="url(#paint2_linear_22482_1647)" fill-rule="evenodd"></path>
<path d="M43.2821 41.4014L43.0908 41.4595L43.1338 41.6014H43.2821V41.4014ZM43.2821 44.448V44.248H43.1338L43.0907 44.3899L43.2821 44.448ZM47.5718 44.448H47.7718V44.248H47.5718V44.448ZM50.6184 44.448V44.248H50.4184V44.448H50.6184ZM53.3197 44.448H53.5197V44.248H53.3197V44.448ZM56.3663 46.6862H56.1663C56.1663 47.4166 55.5734 48.0095 54.843 48.0095V48.2095V48.4095C55.7943 48.4095 56.5663 47.6375 56.5663 46.6862H56.3663ZM56.3663 42.9247H56.1663V46.6862H56.3663H56.5663V42.9247H56.3663ZM54.843 41.4014V41.6014C55.5734 41.6014 56.1663 42.1943 56.1663 42.9247H56.3663H56.5663C56.5663 41.9733 55.7943 41.2014 54.843 41.2014V41.4014ZM43.2821 41.4014V41.6014H54.843V41.4014V41.2014H43.2821V41.4014ZM38.2491 37.6418V37.8418C40.5372 37.8418 42.457 39.3725 43.0908 41.4595L43.2821 41.4014L43.4735 41.3433C42.7911 39.0959 40.7219 37.4418 38.2491 37.4418V37.6418ZM32.9663 42.9247H33.1663C33.1663 40.1226 35.447 37.8418 38.2491 37.8418V37.6418V37.4418C35.2261 37.4418 32.7663 39.9017 32.7663 42.9247H32.9663ZM38.2491 48.2095V48.0095C35.4471 48.0095 33.1663 45.7289 33.1663 42.9247H32.9663H32.7663C32.7663 45.9497 35.2261 48.4095 38.2491 48.4095V48.2095ZM43.2821 44.448L43.0907 44.3899C42.457 46.4789 40.5372 48.0095 38.2491 48.0095V48.2095V48.4095C40.7219 48.4095 42.7911 46.7554 43.4735 44.506L43.2821 44.448ZM47.5718 44.448V44.248H43.2821V44.448V44.648H47.5718V44.448ZM47.5718 46.6862H47.7718V44.448H47.5718H47.3718V46.6862H47.5718ZM49.0951 48.2095V48.0095C48.3647 48.0095 47.7718 47.4166 47.7718 46.6862H47.5718H47.3718C47.3718 47.6375 48.1437 48.4095 49.0951 48.4095V48.2095ZM50.6184 46.6862H50.4184C50.4184 47.4166 49.8255 48.0095 49.0951 48.0095V48.2095V48.4095C50.0464 48.4095 50.8184 47.6375 50.8184 46.6862H50.6184ZM50.6184 44.448H50.4184V46.6862H50.6184H50.8184V44.448H50.6184ZM53.3197 44.448V44.248H50.6184V44.448V44.648H53.3197V44.448ZM53.3197 46.6862H53.5197V44.448H53.3197H53.1197V46.6862H53.3197ZM54.843 48.2095V48.0095C54.1126 48.0095 53.5197 47.4166 53.5197 46.6862H53.3197H53.1197C53.1197 47.6375 53.8917 48.4095 54.843 48.4095V48.2095ZM38.2491 40.6862V40.4862C36.9059 40.4862 35.8109 41.579 35.8109 42.9245H36.0109H36.2109C36.2109 41.8001 37.1266 40.8862 38.2491 40.8862V40.6862ZM40.4873 42.9245H40.6873C40.6873 41.579 39.5923 40.4862 38.2491 40.4862V40.6862V40.8862C39.3716 40.8862 40.2873 41.8001 40.2873 42.9245H40.4873ZM38.2491 45.1607V45.3607C39.5922 45.3607 40.6873 44.268 40.6873 42.9245H40.4873H40.2873C40.2873 44.0466 39.3717 44.9607 38.2491 44.9607V45.1607ZM36.0109 42.9245H35.8109C35.8109 44.268 36.906 45.3607 38.2491 45.3607V45.1607V44.9607C37.1265 44.9607 36.2109 44.0466 36.2109 42.9245H36.0109Z" fill="url(#paint3_linear_22482_1647)" fill-opacity="0.5" mask="url(#path-5-inside-2_22482_1647)"></path>
</g>
<defs>
<filter color-interpolation-filters="sRGB" filterunits="userSpaceOnUse" height="66.1042" id="filter0_f_22482_1647" width="66.6963" x="1.14502" y="1.90015">
<feflood flood-opacity="0" result="BackgroundImageFix"></feflood>
<feblend in="SourceGraphic" in2="BackgroundImageFix" mode="normal" result="shape"></feblend>
<fegaussianblur result="effect1_foregroundBlur_22482_1647" stddeviation="8.5"></fegaussianblur>
</filter>
<clippath id="bgblur_0_22482_1647_clip_path" transform="translate(-11.4375 -9.69653)">
<path d="M53.5631 22.6965H35.9537C29.0683 22.6965 24.4375 27.5305 24.4375 34.7205V51.3144C24.4375 58.4841 29.0683 63.318 35.9537 63.318H53.5631C60.4484 63.318 65.059 58.4841 65.059 51.3144V34.7205C65.059 27.5305 60.4484 22.6965 53.5631 22.6965Z"></path>
</clippath>
<filter color-interpolation-filters="sRGB" filterunits="userSpaceOnUse" height="40.5676" id="filter2_d_22482_1647" width="53.3999" x="17.9663" y="22.6418">
<feflood flood-opacity="0" result="BackgroundImageFix"></feflood>
<fecolormatrix in="SourceAlpha" result="hardAlpha" type="matrix" values="0 0 0 0 0 0 0 0 0 0 0 0 0 0 0 0 0 0 127 0"></fecolormatrix>
<feoffset dx="5" dy="5"></feoffset>
<fegaussianblur stddeviation="5"></fegaussianblur>
<fecolormatrix type="matrix" values="0 0 0 0 0.454902 0 0 0 0 0.870588 0 0 0 0 0.376471 0 0 0 0.5 0"></fecolormatrix>
<feblend in2="BackgroundImageFix" mode="normal" result="effect1_dropShadow_22482_1647"></feblend>
<feblend in="SourceGraphic" in2="effect1_dropShadow_22482_1647" mode="normal" result="shape"></feblend>
</filter>
<clippath id="bgblur_1_22482_1647_clip_path" transform="translate(-17.9663 -22.6418)">
<path clip-rule="evenodd" d="M54.843 48.2095C55.6839 48.2095 56.3663 47.5271 56.3663 46.6862V42.9247C56.3663 42.0838 55.6839 41.4014 54.843 41.4014H43.2821C42.6241 39.2342 40.6296 37.6418 38.2491 37.6418C35.3366 37.6418 32.9663 40.0121 32.9663 42.9247C32.9663 45.8393 35.3366 48.2095 38.2491 48.2095C40.6296 48.2095 42.6241 46.6172 43.2821 44.448H47.5718V46.6862C47.5718 47.5271 48.2542 48.2095 49.0951 48.2095C49.9359 48.2095 50.6184 47.5271 50.6184 46.6862V44.448H53.3197V46.6862C53.3197 47.5271 54.0021 48.2095 54.843 48.2095ZM36.0109 42.9245C36.0109 41.6896 37.0162 40.6862 38.2491 40.6862C39.482 40.6862 40.4873 41.6896 40.4873 42.9245C40.4873 44.1573 39.482 45.1607 38.2491 45.1607C37.0162 45.1607 36.0109 44.1573 36.0109 42.9245Z" fill-rule="evenodd"></path>
</clippath>
<lineargradient gradientunits="userSpaceOnUse" id="paint0_linear_22482_1647" x1="44.7449" x2="30.3464" y1="8.68149" y2="50.3368">
<stop stop-color="#9BF763"></stop>
<stop offset="1" stop-color="#26AB5B"></stop>
</lineargradient>
<lineargradient gradientunits="userSpaceOnUse" id="paint1_linear_22482_1647" x1="30.9038" x2="56.816" y1="27.429" y2="59.5219">
<stop stop-color="white" stop-opacity="0.25"></stop>
<stop offset="1" stop-color="white" stop-opacity="0"></stop>
</lineargradient>
<lineargradient gradientunits="userSpaceOnUse" id="paint2_linear_22482_1647" x1="54.7073" x2="28.7495" y1="39.5502" y2="41.4242">
<stop stop-color="white"></stop>
<stop offset="1" stop-color="white" stop-opacity="0.2"></stop>
</lineargradient>
<lineargradient gradientunits="userSpaceOnUse" id="paint3_linear_22482_1647" x1="35.487" x2="55.3545" y1="41.1868" y2="41.4296">
<stop stop-color="white"></stop>
<stop offset="1" stop-color="white" stop-opacity="0"></stop>
</lineargradient>
</defs>
</svg>