<svg fill="none" height="72" viewbox="0 0 72 72" width="72" xmlns="http://www.w3.org/2000/svg">
<g clip-path="url(#clip0_22482_1618)">
<rect fill="white" fill-opacity="0.01" height="72" width="72"></rect>
<foreignobject height="71.2019" width="71.2021" x="-4.02881" y="-4.02881">
<div style="backdrop-filter:blur(6.5px);clip-path:url(#bgblur_1_22482_1618_clip_path);height:100%;width:100%" xmlns="http://www.w3.org/1999/xhtml">
</div>
</foreignobject>
<path d="M54.1731 31.5722C54.1731 44.0547 44.0547 54.1731 31.5722 54.1731C19.0896 54.1731 8.97119 44.0547 8.97119 31.5722C8.97119 19.0919 19.0896 8.97119 31.5722 8.97119C44.0547 8.97119 54.1731 19.0919 54.1731 31.5722Z" data-figma-bg-blur-radius="13" fill="url(#paint0_linear_22482_1618)"></path>
<g filter="url(#filter1_f_22482_1618)">
<path d="M31.6306 16.8618C23.6049 16.8618 17.0913 23.3769 17.0913 31.4011C17.0913 39.4282 23.6049 45.9403 31.6306 45.9403C39.6708 45.9403 46.1698 39.4282 46.1698 31.4011C46.1698 23.3769 39.6708 16.8618 31.6306 16.8618Z" fill="#FF3D22"></path>
</g>
<foreignobject height="71.2019" width="71.2021" x="4.82715" y="4.82715">
<div style="backdrop-filter:blur(6px);clip-path:url(#bgblur_2_22482_1618_clip_path);height:100%;width:100%" xmlns="http://www.w3.org/1999/xhtml">
</div>
</foreignobject>
<path d="M40.4277 17.3271C53.1863 17.3271 63.5291 27.6715 63.5293 40.4277C63.5293 53.1864 53.1864 63.5293 40.4277 63.5293C27.6693 63.5291 17.3271 53.1863 17.3271 40.4277C17.3274 27.6717 27.6693 17.3274 40.4277 17.3271Z" data-figma-bg-blur-radius="12" fill="#FFAC95" fill-opacity="0.4" stroke="url(#paint1_linear_22482_1618)" stroke-linecap="round" stroke-linejoin="round"></path>
<foreignobject height="47.5686" width="47.5464" x="16.6553" y="16.0903">
<div style="backdrop-filter:blur(7.5px);clip-path:url(#bgblur_3_22482_1618_clip_path);height:100%;width:100%" xmlns="http://www.w3.org/1999/xhtml">
</div>
</foreignobject>
<g data-figma-bg-blur-radius="15" filter="url(#filter3_d_22482_1618)">
<mask fill="white" id="path-4-inside-1_22482_1618">
<path d="M49.1519 32.4272L45.4906 43.9989C45.355 44.4736 44.9708 44.8578 44.4961 44.9956L32.9696 48.6095C32.2012 48.8604 31.4554 48.1123 31.704 47.3439L35.3201 35.7496C35.4557 35.275 35.84 34.9134 36.3146 34.7551L47.8863 31.139C48.6773 30.8904 49.4005 31.6362 49.1519 32.4272Z"></path>
</mask>
<path d="M49.1519 32.4272L45.4906 43.9989C45.355 44.4736 44.9708 44.8578 44.4961 44.9956L32.9696 48.6095C32.2012 48.8604 31.4554 48.1123 31.704 47.3439L35.3201 35.7496C35.4557 35.275 35.84 34.9134 36.3146 34.7551L47.8863 31.139C48.6773 30.8904 49.4005 31.6362 49.1519 32.4272Z" fill="url(#paint2_linear_22482_1618)"></path>
<path d="M45.4906 43.9989L45.1091 43.8782L45.106 43.8891L45.4906 43.9989ZM44.4961 44.9956L44.3845 44.6114L44.3765 44.614L44.4961 44.9956ZM32.9696 48.6095L32.85 48.2278L32.8455 48.2293L32.9696 48.6095ZM31.704 47.3439L32.0846 47.467L32.0858 47.463L31.704 47.3439ZM35.3201 35.7496L35.7021 35.8687L35.7047 35.8595L35.3201 35.7496ZM36.3146 34.7551L36.1953 34.3733L36.1881 34.3757L36.3146 34.7551ZM47.8863 31.139L48.0056 31.5208L48.0062 31.5206L47.8863 31.139ZM49.1519 32.4272L48.7706 32.3066L45.1092 43.8783L45.4906 43.9989L45.8719 44.1196L49.5333 32.5479L49.1519 32.4272ZM45.4906 43.9989L45.106 43.8891C45.0084 44.2306 44.7279 44.5118 44.3846 44.6115L44.4961 44.9956L44.6077 45.3798C45.2136 45.2038 45.7016 44.7165 45.8752 44.1088L45.4906 43.9989ZM44.4961 44.9956L44.3765 44.614L32.85 48.2279L32.9696 48.6095L33.0893 48.9912L44.6158 45.3773L44.4961 44.9956ZM32.9696 48.6095L32.8455 48.2293C32.3899 48.378 31.9359 47.9266 32.0846 47.467L31.704 47.3439L31.3234 47.2208C30.9749 48.2981 32.0125 49.3428 33.0938 48.9898L32.9696 48.6095ZM31.704 47.3439L32.0858 47.463L35.702 35.8687L35.3201 35.7496L34.9383 35.6305L31.3221 47.2248L31.704 47.3439ZM35.3201 35.7496L35.7047 35.8595C35.7993 35.5287 36.0741 35.257 36.4411 35.1346L36.3146 34.7551L36.1881 34.3757C35.6059 34.5698 35.1122 35.0212 34.9355 35.6397L35.3201 35.7496ZM36.3146 34.7551L36.4339 35.1369L48.0056 31.5208L47.8863 31.139L47.767 30.7572L36.1953 34.3734L36.3146 34.7551ZM47.8863 31.139L48.0062 31.5206C48.4765 31.3728 48.9259 31.8123 48.7703 32.3073L49.1519 32.4272L49.5335 32.5472C49.8752 31.4601 48.8781 30.408 47.7663 30.7574L47.8863 31.139Z" fill="url(#paint3_linear_22482_1618)" mask="url(#path-4-inside-1_22482_1618)"></path>
</g>
</g>
<defs>
<clippath id="bgblur_1_22482_1618_clip_path" transform="translate(4.02881 4.02881)">
<path d="M54.1731 31.5722C54.1731 44.0547 44.0547 54.1731 31.5722 54.1731C19.0896 54.1731 8.97119 44.0547 8.97119 31.5722C8.97119 19.0919 19.0896 8.97119 31.5722 8.97119C44.0547 8.97119 54.1731 19.0919 54.1731 31.5722Z"></path>
</clippath>
<filter color-interpolation-filters="sRGB" filterunits="userSpaceOnUse" height="73.0786" id="filter1_f_22482_1618" width="73.0786" x="-4.90869" y="-5.13818">
<feflood flood-opacity="0" result="BackgroundImageFix"></feflood>
<feblend in="SourceGraphic" in2="BackgroundImageFix" mode="normal" result="shape"></feblend>
<fegaussianblur result="effect1_foregroundBlur_22482_1618" stddeviation="11"></fegaussianblur>
</filter>
<clippath id="bgblur_2_22482_1618_clip_path" transform="translate(-4.82715 -4.82715)">
<path d="M40.4277 17.3271C53.1863 17.3271 63.5291 27.6715 63.5293 40.4277C63.5293 53.1864 53.1864 63.5293 40.4277 63.5293C27.6693 63.5291 17.3271 53.1863 17.3271 40.4277C17.3274 27.6717 27.6693 17.3274 40.4277 17.3271Z"></path>
</clippath>
<filter color-interpolation-filters="sRGB" filterunits="userSpaceOnUse" height="47.5686" id="filter3_d_22482_1618" width="47.5464" x="16.6553" y="16.0903">
<feflood flood-opacity="0" result="BackgroundImageFix"></feflood>
<fecolormatrix in="SourceAlpha" result="hardAlpha" type="matrix" values="0 0 0 0 0 0 0 0 0 0 0 0 0 0 0 0 0 0 127 0"></fecolormatrix>
<feoffset dx="5" dy="5"></feoffset>
<fegaussianblur stddeviation="5"></fegaussianblur>
<fecolormatrix type="matrix" values="0 0 0 0 1 0 0 0 0 0.447059 0 0 0 0 0.368627 0 0 0 0.3 0"></fecolormatrix>
<feblend in2="BackgroundImageFix" mode="normal" result="effect1_dropShadow_22482_1618"></feblend>
<feblend in="SourceGraphic" in2="effect1_dropShadow_22482_1618" mode="normal" result="shape"></feblend>
</filter>
<clippath id="bgblur_3_22482_1618_clip_path" transform="translate(-16.6553 -16.0903)">
<path d="M49.1519 32.4272L45.4906 43.9989C45.355 44.4736 44.9708 44.8578 44.4961 44.9956L32.9696 48.6095C32.2012 48.8604 31.4554 48.1123 31.704 47.3439L35.3201 35.7496C35.4557 35.275 35.84 34.9134 36.3146 34.7551L47.8863 31.139C48.6773 30.8904 49.4005 31.6362 49.1519 32.4272Z"></path>
</clippath>
<lineargradient gradientunits="userSpaceOnUse" id="paint0_linear_22482_1618" x1="34.8999" x2="-4.81856" y1="34.5991" y2="53.9111">
<stop stop-color="#FFA78F"></stop>
<stop offset="1" stop-color="#F23E2C"></stop>
</lineargradient>
<lineargradient gradientunits="userSpaceOnUse" id="paint1_linear_22482_1618" x1="25.0226" x2="53.8566" y1="23.0932" y2="58.8049">
<stop stop-color="white" stop-opacity="0.25"></stop>
<stop offset="1" stop-color="white" stop-opacity="0"></stop>
</lineargradient>
<lineargradient gradientunits="userSpaceOnUse" id="paint2_linear_22482_1618" x1="40.6349" x2="37.5142" y1="34.1551" y2="47.6279">
<stop stop-color="white"></stop>
<stop offset="1" stop-color="white" stop-opacity="0.2"></stop>
</lineargradient>
<lineargradient gradientunits="userSpaceOnUse" id="paint3_linear_22482_1618" x1="34.4484" x2="45.6582" y1="33.1371" y2="47.0033">
<stop stop-color="white" stop-opacity="0.25"></stop>
<stop offset="1" stop-color="white" stop-opacity="0"></stop>
</lineargradient>
<clippath id="clip0_22482_1618">
<rect fill="white" height="72" width="72"></rect>
</clippath>
</defs>
</svg>