<svg fill="none" height="72" viewbox="0 0 72 72" width="72" xmlns="http://www.w3.org/2000/svg">
<g clip-path="url(#clip0_22482_1631)">
<rect fill="white" fill-opacity="0.01" height="72" width="72"></rect>
<path d="M38.3982 41.8117C38.3982 50.1688 31.6251 56.9405 23.2694 56.9405C14.9138 56.9405 8.14062 50.1688 8.14062 41.8117C8.14062 33.4575 14.9138 26.6829 23.2694 26.6829C31.6251 26.6829 38.3982 33.4575 38.3982 41.8117Z" fill="url(#paint0_linear_22482_1631)"></path>
<g filter="url(#filter0_f_22482_1631)" opacity="0.5">
<path d="M31.7487 41.8116C31.7487 46.4956 27.9525 50.2909 23.2694 50.2909C18.5862 50.2909 14.79 46.4956 14.79 41.8116C14.79 37.1293 18.5862 33.3323 23.2694 33.3323C27.9525 33.3323 31.7487 37.1293 31.7487 41.8116Z" fill="#3E37FF"></path>
</g>
<foreignobject height="71.2019" width="71.2021" x="7.65723" y="1.39893">
<div style="backdrop-filter:blur(6px);clip-path:url(#bgblur_1_22482_1631_clip_path);height:100%;width:100%" xmlns="http://www.w3.org/1999/xhtml">
</div>
</foreignobject>
<path d="M43.2578 13.8989C56.0164 13.8989 66.3592 24.2433 66.3594 36.9995C66.3594 49.7605 56.0164 60.1011 43.2578 60.1011C30.4994 60.1009 20.1572 49.7603 20.1572 36.9995C20.1574 24.2435 30.4994 13.8991 43.2578 13.8989Z" data-figma-bg-blur-radius="12" fill="#535CFF" fill-opacity="0.35" stroke="url(#paint1_linear_22482_1631)" stroke-linecap="round" stroke-linejoin="round"></path>
<foreignobject height="35.4111" width="55.6621" x="15.4272" y="19.2964">
<div style="backdrop-filter:blur(7.5px);clip-path:url(#bgblur_2_22482_1631_clip_path);height:100%;width:100%" xmlns="http://www.w3.org/1999/xhtml">
</div>
</foreignobject>
<g data-figma-bg-blur-radius="15" filter="url(#filter2_d_22482_1631)">
<mask fill="white" id="path-4-inside-1_22482_1631">
<path d="M33.1353 34.2964C34.629 34.2966 35.8423 35.5102 35.8423 36.9995C35.8423 38.491 34.629 39.7073 33.1353 39.7075C31.6413 39.7075 30.4273 38.4912 30.4272 36.9995C30.4272 35.5101 31.6413 34.2964 33.1353 34.2964ZM43.2583 34.2964C44.7522 34.2964 45.9663 35.5101 45.9663 36.9995C45.9663 38.4911 44.7522 39.7075 43.2583 39.7075C41.7644 39.7075 40.5503 38.4912 40.5503 36.9995C40.5503 35.5101 41.7644 34.2964 43.2583 34.2964ZM53.3813 34.2964C54.8753 34.2964 56.0894 35.5101 56.0894 36.9995C56.0893 38.4912 54.8753 39.7075 53.3813 39.7075C51.8876 39.7073 50.6743 38.491 50.6743 36.9995C50.6743 35.5102 51.8876 34.2966 53.3813 34.2964Z"></path>
</mask>
<path d="M33.1353 34.2964C34.629 34.2966 35.8423 35.5102 35.8423 36.9995C35.8423 38.491 34.629 39.7073 33.1353 39.7075C31.6413 39.7075 30.4273 38.4912 30.4272 36.9995C30.4272 35.5101 31.6413 34.2964 33.1353 34.2964ZM43.2583 34.2964C44.7522 34.2964 45.9663 35.5101 45.9663 36.9995C45.9663 38.4911 44.7522 39.7075 43.2583 39.7075C41.7644 39.7075 40.5503 38.4912 40.5503 36.9995C40.5503 35.5101 41.7644 34.2964 43.2583 34.2964ZM53.3813 34.2964C54.8753 34.2964 56.0894 35.5101 56.0894 36.9995C56.0893 38.4912 54.8753 39.7075 53.3813 39.7075C51.8876 39.7073 50.6743 38.491 50.6743 36.9995C50.6743 35.5102 51.8876 34.2966 53.3813 34.2964Z" fill="url(#paint2_linear_22482_1631)"></path>
<path d="M33.1353 34.2964L33.1353 33.8964H33.1353V34.2964ZM35.8423 36.9995L36.2423 36.9995V36.9995H35.8423ZM33.1353 39.7075V40.1075H33.1353L33.1353 39.7075ZM30.4272 36.9995H30.0272V36.9995L30.4272 36.9995ZM43.2583 34.2964L43.2583 33.8964H43.2583V34.2964ZM45.9663 36.9995L46.3663 36.9995V36.9995H45.9663ZM43.2583 39.7075V40.1075H43.2583L43.2583 39.7075ZM40.5503 36.9995H40.1503V36.9995L40.5503 36.9995ZM53.3813 34.2964V33.8964H53.3813L53.3813 34.2964ZM56.0894 36.9995L56.4894 36.9995V36.9995H56.0894ZM53.3813 39.7075L53.3813 40.1075H53.3813V39.7075ZM50.6743 36.9995H50.2743V36.9995L50.6743 36.9995ZM33.1353 34.2964L33.1352 34.6964C34.4084 34.6966 35.4423 35.7315 35.4423 36.9995H35.8423H36.2423C36.2423 35.289 34.8495 33.8966 33.1353 33.8964L33.1353 34.2964ZM35.8423 36.9995L35.4423 36.9995C35.4423 38.2705 34.4077 39.3073 33.1352 39.3075L33.1353 39.7075L33.1353 40.1075C34.8503 40.1073 36.2423 38.7116 36.2423 36.9995L35.8423 36.9995ZM33.1353 39.7075V39.3075C31.8625 39.3075 30.8273 38.2705 30.8272 36.9995L30.4272 36.9995L30.0272 36.9995C30.0273 38.7118 31.4202 40.1075 33.1353 40.1075V39.7075ZM30.4272 36.9995H30.8272C30.8272 35.7315 31.8617 34.6964 33.1353 34.6964V34.2964V33.8964C31.4209 33.8964 30.0272 35.2887 30.0272 36.9995H30.4272ZM43.2583 34.2964L43.2583 34.6964C44.5318 34.6964 45.5663 35.7316 45.5663 36.9995H45.9663H46.3663C46.3663 35.2887 44.9726 33.8964 43.2583 33.8964L43.2583 34.2964ZM45.9663 36.9995L45.5663 36.9995C45.5663 38.2704 44.5311 39.3075 43.2583 39.3075L43.2583 39.7075L43.2583 40.1075C44.9733 40.1075 46.3663 38.7118 46.3663 36.9995L45.9663 36.9995ZM43.2583 39.7075V39.3075C41.9855 39.3075 40.9503 38.2705 40.9503 36.9995L40.5503 36.9995L40.1503 36.9995C40.1503 38.7118 41.5433 40.1075 43.2583 40.1075V39.7075ZM40.5503 36.9995H40.9503C40.9503 35.7315 41.9848 34.6964 43.2583 34.6964V34.2964V33.8964C41.544 33.8964 40.1503 35.2887 40.1503 36.9995H40.5503ZM53.3813 34.2964V34.6964C54.6549 34.6964 55.6894 35.7315 55.6894 36.9995H56.0894H56.4894C56.4894 35.2887 55.0957 33.8964 53.3813 33.8964V34.2964ZM56.0894 36.9995L55.6894 36.9995C55.6893 38.2705 54.6541 39.3075 53.3813 39.3075V39.7075V40.1075C55.0964 40.1075 56.4893 38.7118 56.4894 36.9995L56.0894 36.9995ZM53.3813 39.7075L53.3814 39.3075C52.1089 39.3074 51.0743 38.2705 51.0743 36.9995L50.6743 36.9995L50.2743 36.9995C50.2743 38.7116 51.6663 40.1073 53.3813 40.1075L53.3813 39.7075ZM50.6743 36.9995H51.0743C51.0743 35.7315 52.1081 34.6965 53.3814 34.6964L53.3813 34.2964L53.3813 33.8964C51.667 33.8966 50.2743 35.2889 50.2743 36.9995H50.6743Z" fill="url(#paint3_linear_22482_1631)" mask="url(#path-4-inside-1_22482_1631)"></path>
</g>
</g>
<defs>
<filter color-interpolation-filters="sRGB" filterunits="userSpaceOnUse" height="46.9587" id="filter0_f_22482_1631" width="46.9585" x="-0.209961" y="18.3323">
<feflood flood-opacity="0" result="BackgroundImageFix"></feflood>
<feblend in="SourceGraphic" in2="BackgroundImageFix" mode="normal" result="shape"></feblend>
<fegaussianblur result="effect1_foregroundBlur_22482_1631" stddeviation="7.5"></fegaussianblur>
</filter>
<clippath id="bgblur_1_22482_1631_clip_path" transform="translate(-7.65723 -1.39893)">
<path d="M43.2578 13.8989C56.0164 13.8989 66.3592 24.2433 66.3594 36.9995C66.3594 49.7605 56.0164 60.1011 43.2578 60.1011C30.4994 60.1009 20.1572 49.7603 20.1572 36.9995C20.1574 24.2435 30.4994 13.8991 43.2578 13.8989Z"></path>
</clippath>
<filter color-interpolation-filters="sRGB" filterunits="userSpaceOnUse" height="35.4111" id="filter2_d_22482_1631" width="55.6621" x="15.4272" y="19.2964">
<feflood flood-opacity="0" result="BackgroundImageFix"></feflood>
<fecolormatrix in="SourceAlpha" result="hardAlpha" type="matrix" values="0 0 0 0 0 0 0 0 0 0 0 0 0 0 0 0 0 0 127 0"></fecolormatrix>
<feoffset dx="5" dy="5"></feoffset>
<fegaussianblur stddeviation="5"></fegaussianblur>
<fecolormatrix type="matrix" values="0 0 0 0 0.577356 0 0 0 0 0.359375 0 0 0 0 0.9375 0 0 0 0.5 0"></fecolormatrix>
<feblend in2="BackgroundImageFix" mode="normal" result="effect1_dropShadow_22482_1631"></feblend>
<feblend in="SourceGraphic" in2="effect1_dropShadow_22482_1631" mode="normal" result="shape"></feblend>
</filter>
<clippath id="bgblur_2_22482_1631_clip_path" transform="translate(-15.4272 -19.2964)">
<path d="M33.1353 34.2964C34.629 34.2966 35.8423 35.5102 35.8423 36.9995C35.8423 38.491 34.629 39.7073 33.1353 39.7075C31.6413 39.7075 30.4273 38.4912 30.4272 36.9995C30.4272 35.5101 31.6413 34.2964 33.1353 34.2964ZM43.2583 34.2964C44.7522 34.2964 45.9663 35.5101 45.9663 36.9995C45.9663 38.4911 44.7522 39.7075 43.2583 39.7075C41.7644 39.7075 40.5503 38.4912 40.5503 36.9995C40.5503 35.5101 41.7644 34.2964 43.2583 34.2964ZM53.3813 34.2964C54.8753 34.2964 56.0894 35.5101 56.0894 36.9995C56.0893 38.4912 54.8753 39.7075 53.3813 39.7075C51.8876 39.7073 50.6743 38.491 50.6743 36.9995C50.6743 35.5102 51.8876 34.2966 53.3813 34.2964Z"></path>
</clippath>
<lineargradient gradientunits="userSpaceOnUse" id="paint0_linear_22482_1631" x1="23.2694" x2="23.2694" y1="26.6829" y2="56.9405">
<stop stop-color="#3CAEFF"></stop>
<stop offset="1" stop-color="#1131FF"></stop>
</lineargradient>
<lineargradient gradientunits="userSpaceOnUse" id="paint1_linear_22482_1631" x1="27.8526" x2="56.6867" y1="19.665" y2="55.3766">
<stop stop-color="white" stop-opacity="0.25"></stop>
<stop offset="1" stop-color="white" stop-opacity="0"></stop>
</lineargradient>
<lineargradient gradientunits="userSpaceOnUse" id="paint2_linear_22482_1631" x1="54.2699" x2="26.3226" y1="35.2735" y2="39.5949">
<stop stop-color="white"></stop>
<stop offset="1" stop-color="white" stop-opacity="0.2"></stop>
</lineargradient>
<lineargradient gradientunits="userSpaceOnUse" id="paint3_linear_22482_1631" x1="34.5122" x2="35.6807" y1="34.9268" y2="41.7899">
<stop stop-color="white" stop-opacity="0.25"></stop>
<stop offset="1" stop-color="white" stop-opacity="0"></stop>
</lineargradient>
<clippath id="clip0_22482_1631">
<rect fill="white" height="72" width="72"></rect>
</clippath>
</defs>
</svg>