<svg fill="none" height="32" viewbox="0 0 32 32" width="32" xmlns="http://www.w3.org/2000/svg">
<path d="M4 28V21.3333H9.33333L14.6667 16V11.7333C13.8667 11.4444 13.2222 10.9611 12.7333 10.2833C12.2444 9.60556 12 8.84444 12 8C12 6.88889 12.3889 5.94444 13.1667 5.16667C13.9444 4.38889 14.8889 4 16 4C17.1111 4 18.0556 4.38889 18.8333 5.16667C19.6111 5.94444 20 6.88889 20 8C20 8.84444 19.7556 9.60556 19.2667 10.2833C18.7778 10.9611 18.1333 11.4444 17.3333 11.7333V16L22.6667 21.3333H28V28H21.3333V23.9333L16 18.6L10.6667 23.9333V28H4Z" fill="#0050F1"></path>
</svg>