<svg fill="none" height="32" viewbox="0 0 32 32" width="32" xmlns="http://www.w3.org/2000/svg">
<path d="M14.6667 25.9V16.7666L6.66667 12.1333V21.2666L14.6667 25.9ZM17.3333 25.9L25.3333 21.2666V12.1333L17.3333 16.7666V25.9ZM16 14.4666L23.9 9.89996L16 5.33329L8.1 9.89996L16 14.4666ZM5.33333 23.6C4.91111 23.3555 4.58333 23.0333 4.35 22.6333C4.11667 22.2333 4 21.7888 4 21.3V10.7C4 10.2111 4.11667 9.76663 4.35 9.36663C4.58333 8.96663 4.91111 8.6444 5.33333 8.39996L14.6667 3.03329C15.0889 2.78885 15.5333 2.66663 16 2.66663C16.4667 2.66663 16.9111 2.78885 17.3333 3.03329L26.6667 8.39996C27.0889 8.6444 27.4167 8.96663 27.65 9.36663C27.8833 9.76663 28 10.2111 28 10.7V21.3C28 21.7888 27.8833 22.2333 27.65 22.6333C27.4167 23.0333 27.0889 23.3555 26.6667 23.6L17.3333 28.9666C16.9111 29.2111 16.4667 29.3333 16 29.3333C15.5333 29.3333 15.0889 29.2111 14.6667 28.9666L5.33333 23.6Z" fill="#0050F1"></path>
</svg>