<svg width="168" height="36" viewBox="0 0 168 36" fill="none" xmlns="http://www.w3.org/2000/svg">
<path opacity="0.61" d="M25.1871 17.3173C25.151 16.591 25.0469 15.8797 24.877 15.2001C25.0363 15.8627 25.1319 16.5486 25.1722 17.2536C25.1828 17.2706 25.1828 17.296 25.1871 17.3173ZM13.2274 24.1062L13.2232 24.1019V24.1104L13.2274 24.1062ZM23.5817 11.9936C23.9321 12.584 24.2294 13.2083 24.4693 13.8602C24.2294 13.2104 23.93 12.584 23.586 11.9894C23.5817 11.9851 23.5774 11.9724 23.5732 11.9681C23.4415 11.7452 23.3014 11.5201 23.1506 11.3056C23.295 11.5243 23.4352 11.7494 23.569 11.9724C23.5732 11.9766 23.5775 11.9894 23.5817 11.9936ZM18.3664 7.1881C18.7146 7.35585 19.0544 7.54061 19.3899 7.73809C19.0586 7.53636 18.7146 7.35585 18.3664 7.1881ZM16.7334 6.55742C17.2982 6.72942 17.844 6.94177 18.3664 7.19022C17.8397 6.93752 17.2982 6.7273 16.7334 6.55742ZM13.1659 6.02867C14.2 6.02442 15.2044 6.15182 16.1621 6.3939C15.2087 6.14758 14.2042 6.02017 13.1701 6.02441C13.1658 6.02866 13.1659 6.02867 13.1659 6.02867ZM12.4163 6.05415C12.4205 6.05839 12.4205 6.05838 12.429 6.05838L12.4332 6.05415C12.4247 6.05415 12.4248 6.05415 12.4163 6.05415Z" fill="#2848D4"/>
<path d="M13.27 35.9766V34.9403L13.2467 29.9118L13.2276 24.1125L13.2233 24.1083V24.0998L13.2191 23.9936L13.2021 18.534C13.1851 18.3642 13.1745 18.1879 13.1745 18.0095C13.1745 17.8227 13.1851 17.6337 13.1936 17.4468C13.4697 14.3996 16.0221 12 19.1522 11.9936C19.2541 11.9936 19.356 11.9936 19.458 12C19.5089 12 19.5641 12.0042 19.6151 12.0042C19.7553 12.017 19.8869 12.0361 20.0186 12.0573C20.1077 12.0701 20.1969 12.0828 20.2904 12.0977C20.4008 12.1231 20.5155 12.1423 20.6259 12.1677C20.9232 12.2421 21.2205 12.3355 21.4902 12.4523C21.5794 12.4905 21.677 12.5287 21.7577 12.5733C21.8342 12.6073 21.9106 12.6498 21.9871 12.6816C22.0678 12.7283 22.1442 12.7708 22.2206 12.8197C22.2419 12.8239 22.2546 12.8282 22.2716 12.8451C22.3523 12.8919 22.4372 12.9407 22.5137 13.0002C22.6029 13.0554 22.6963 13.1127 22.777 13.1849C22.8025 13.1934 22.8237 13.2061 22.8365 13.2274L22.8535 13.2444C22.9427 13.3081 23.0318 13.3781 23.1168 13.4546L23.1507 13.4886C23.2399 13.5608 23.3291 13.6478 23.4098 13.7285C23.4693 13.788 23.5287 13.8474 23.5839 13.909C24.4397 14.7903 25.011 15.954 25.1766 17.2472C25.1362 16.5401 25.0407 15.8563 24.8814 15.1938C24.7689 14.7372 24.633 14.2891 24.4737 13.8538C24.2338 13.204 23.9343 12.5776 23.5861 11.9872C23.5818 11.983 23.5776 11.9703 23.5733 11.966C23.4417 11.743 23.3015 11.518 23.155 11.2992C23.0063 11.0848 22.8535 10.8724 22.6942 10.6664C22.5371 10.4604 22.3672 10.2566 22.1973 10.0633C21.3882 9.15235 20.4411 8.36664 19.3921 7.73171C19.0566 7.53423 18.7169 7.34949 18.3686 7.18173C17.842 6.92903 17.3005 6.72092 16.7356 6.54891C16.5445 6.48521 16.3576 6.43637 16.1623 6.38541C15.2046 6.14333 14.2001 6.01591 13.166 6.02016C13.1617 6.01591 13.1575 6.02016 13.1532 6.02441C12.9027 6.02016 12.6754 6.03079 12.4334 6.04353L12.4291 6.04777C12.4206 6.04777 12.4206 6.04777 12.4164 6.04353L12.4079 6.05202C8.28401 6.31321 4.74837 8.66606 2.81384 12.0488C2.62485 12.3758 2.44858 12.7135 2.28932 13.0617C2.24685 13.1552 2.20864 13.2529 2.17679 13.3463C2.13857 13.4355 2.10459 13.5289 2.06849 13.6266C2.01328 13.7583 1.96867 13.8984 1.9177 14.0322C1.78392 14.3889 1.67137 14.7563 1.56944 15.1279C1.51848 15.2808 1.48664 15.4422 1.45266 15.6015C1.41444 15.7586 1.39107 15.9115 1.36559 16.0708C1.36134 16.075 1.36134 16.075 1.36134 16.0835C1.35709 16.0878 1.35709 16.0878 1.36134 16.1005L1.35709 16.1047C1.33585 16.2364 1.31676 16.3681 1.29978 16.5103C1.27429 16.6632 1.25943 16.814 1.24669 16.9711L1.24244 16.9754C1.23394 17.0773 1.22545 17.1877 1.21908 17.2875C1.21483 17.3767 1.20633 17.4702 1.20845 17.5615L1.2042 17.5657C1.20845 17.6464 1.20845 17.7144 1.2042 17.7951C1.19996 17.8673 1.2042 17.9479 1.19995 18.0286C1.19995 18.1051 1.2042 18.1858 1.2042 18.2622L1.22756 24.0318L1.25516 32.2923C1.26366 34.3479 2.93911 36.0085 4.9968 36L13.27 35.9766Z" fill="#0050F1"/>
<path d="M13.2212 24.1083L13.2446 29.9161L13.2637 34.9446V35.9787L19.7107 35.9533C21.6516 35.8959 23.5309 35.5201 25.2615 34.8979C30.3665 33.0716 34.4012 29.0179 36.1892 23.9066C36.8029 22.1695 37.149 20.3051 37.1914 18.3663C37.1957 18.292 37.1936 18.2134 37.1936 18.1348L37.1914 17.6698C37.1914 17.5912 37.1872 17.5169 37.1872 17.4383C37.132 15.5102 36.7668 13.6585 36.1488 11.9278C35.327 9.63227 34.0508 7.54697 32.4242 5.79507C34.0359 7.5852 35.0722 9.70872 35.533 11.932C36.41 16.1132 35.2442 20.647 32.0271 23.9278L31.9634 23.9915C30.0543 25.9133 27.7057 27.1279 25.2339 27.6333C23.5882 27.9752 21.883 28.0049 20.2309 27.714C20.2139 27.7119 20.2118 27.7098 20.1885 27.7076C17.7931 27.2744 15.5125 26.2169 13.5992 24.4629C13.4803 24.3589 13.3656 24.2527 13.253 24.1423L13.2212 24.1083Z" fill="#5AE2F2"/>
<path d="M19.5556 24.0148C22.4733 23.8301 24.8282 21.5176 25.1425 18.653C25.168 18.4236 25.1744 18.1964 25.1744 17.9671C25.1744 17.7377 25.2062 17.4765 25.1765 17.2514C25.1361 16.5443 25.0406 15.8605 24.8813 15.198C24.7688 14.7415 24.6329 14.2934 24.4736 13.8581C24.2337 13.2083 23.9342 12.5818 23.586 11.9915C23.5817 11.9872 23.5775 11.9745 23.5732 11.9703C23.4416 11.7473 23.3014 11.5222 23.1549 11.3035C23.0063 11.089 22.8534 10.8767 22.6941 10.6707C22.537 10.4647 22.3671 10.2608 22.1972 10.0676C21.3881 9.1566 20.4411 8.3709 19.392 7.73597C19.0565 7.53848 18.7168 7.35373 18.3685 7.18597C17.8461 6.93752 17.3004 6.72517 16.7355 6.55317C16.5444 6.48946 16.3575 6.44062 16.1622 6.38965C15.2045 6.14757 14.2001 6.02017 13.1659 6.02441C13.1617 6.02017 13.1574 6.02442 13.1531 6.02867C12.9026 6.02442 12.6754 6.03503 12.4333 6.04777L12.429 6.05202C12.4205 6.05202 12.4205 6.05202 12.4163 6.04777L12.4078 6.05627C8.28392 6.31746 4.74828 8.67032 2.81376 12.0531C2.62476 12.3801 2.44849 12.7177 2.28923 13.066C1.99194 13.7222 1.74348 14.4123 1.56935 15.1322C1.51839 15.2851 1.48655 15.4465 1.45258 15.6057C1.41435 15.7544 1.39099 15.9158 1.3655 16.075C1.36126 16.0793 1.36125 16.0793 1.36125 16.0878C1.35276 16.0878 1.35276 16.0962 1.36125 16.1047L1.357 16.109C1.33152 16.2364 1.30818 16.3723 1.29969 16.5146C1.26996 16.6717 1.25509 16.814 1.2466 16.9754L1.24235 16.9796C1.23386 17.0816 1.22536 17.192 1.21899 17.2918C1.28058 15.455 1.62459 13.6988 2.20218 12.0467C3.98169 6.92691 8.02274 2.85825 13.1319 1.03628C14.8116 0.433197 16.6102 0.0743253 18.4768 0.00424927L19.7806 -1.90735e-06C21.6493 0.0552095 23.4458 0.403461 25.134 0.989551C27.4572 1.80073 29.5679 3.07485 31.3453 4.69934C31.4175 4.76305 31.4939 4.82888 31.5662 4.90108C31.6766 5.00301 31.7828 5.10706 31.8932 5.21748C31.9866 5.31091 32.0843 5.40647 32.1777 5.5084C32.2627 5.60184 32.3519 5.6889 32.4283 5.78233C34.0401 7.57245 35.0742 9.69173 35.535 11.9193C36.412 16.0984 35.2483 20.6321 32.0291 23.915L31.9654 23.9787C30.0585 25.8984 27.7035 27.1131 25.2317 27.6206C23.586 27.9603 21.8829 27.9922 20.2351 27.6992C20.2053 27.6949 20.1756 27.6907 20.1459 27.6864C17.7718 27.2468 15.4975 26.1745 13.5991 24.4502C13.4844 24.344 13.3655 24.2357 13.2551 24.1253L13.2253 24.0955V24.087L13.2211 23.9809H13.2466L13.2551 24.0148L18.8845 24H18.9312L19.5534 24.0021" fill="#10ACF5"/>
<path d="M47.0999 25.221V14.2212H51.5083C52.3301 14.2212 53.0585 14.3635 53.6934 14.6502C54.3262 14.9347 54.8252 15.3509 55.1904 15.8946C55.5536 16.4403 55.7362 17.0943 55.7362 17.8588C55.7362 18.6339 55.5684 19.2922 55.2329 19.8316C54.8974 20.3709 54.4111 20.7829 53.772 21.0653C53.1328 21.3477 52.3577 21.49 51.4467 21.49H49.7097V25.2232H47.0999V25.221ZM49.7075 19.3049H51.3809C51.9309 19.3049 52.3598 19.1966 52.6656 18.9779C52.9714 18.7592 53.1243 18.4003 53.1243 17.897C53.1243 17.3938 52.965 17.0285 52.6486 16.8013C52.3322 16.5741 51.9139 16.4594 51.3957 16.4594H49.7054V19.3049H49.7075Z" fill="#0032AF"/>
<path d="M57.4307 25.221V14.2212H65.1624V16.4849H60.0405V18.5277H64.3385V20.6172H60.0405V22.9361H65.2261V25.2232H57.4307V25.221Z" fill="#0032AF"/>
<path d="M69.3416 25.221V16.6017H66.4111V14.2212H74.8967V16.6017H71.9662V25.221H69.3416Z" fill="#0032AF"/>
<path d="M74.542 25.221L78.651 14.2212H81.677L85.8264 25.221H82.8874L82.1102 22.9892H78.1668L77.4045 25.221H74.542ZM78.7551 20.8147H81.505L80.1226 17.0115L78.7551 20.8147Z" fill="#0032AF"/>
<path d="M87.177 25.221V14.2212H91.6406C92.4582 14.2212 93.1717 14.3529 93.7812 14.6183C94.3906 14.8838 94.862 15.266 95.1954 15.7693C95.5288 16.2725 95.6944 16.8756 95.6944 17.5764C95.6944 18.1158 95.5925 18.5914 95.3886 19.0034C95.1848 19.4153 94.9045 19.7572 94.5477 20.029C94.191 20.3009 93.7875 20.5068 93.3373 20.6427L96.2996 25.2232H93.2035L90.753 21.1779H89.7868V25.2232H87.177V25.221ZM89.7847 19.0862H91.3242C91.87 19.0862 92.2947 18.98 92.6005 18.7634C92.9063 18.5489 93.0613 18.2092 93.0613 17.742C93.0613 17.2706 92.9169 16.9245 92.626 16.7015C92.335 16.4785 91.9209 16.3681 91.3816 16.3681H89.7868V19.0862H89.7847Z" fill="#0032AF"/>
<path d="M96.7307 25.221L100.84 14.2212H103.866L108.015 25.221H105.076L104.299 22.9892H100.356L99.5932 25.221H96.7307ZM100.942 20.8147H103.692L102.309 17.0115L100.942 20.8147Z" fill="#0032AF"/>
<path d="M109.366 25.221V14.2212H111.973V25.221H109.366Z" fill="#0032AF"/>
<path d="M114.566 25.221V14.2212H117.144L121.669 20.9634V14.2212H124.198V25.221H121.621L117.087 18.3854V25.221H114.566Z" fill="#0032AF"/>
<path d="M130.635 25.4568C129.802 25.4568 128.993 25.3336 128.208 25.0873C127.422 24.8409 126.757 24.4842 126.211 24.0191L127.437 22.0697C127.668 22.3161 127.961 22.5284 128.316 22.7068C128.673 22.8852 129.053 23.0232 129.458 23.1188C129.864 23.2164 130.259 23.2632 130.641 23.2632C131.18 23.2632 131.62 23.1719 131.958 22.9914C132.295 22.8109 132.465 22.5475 132.465 22.2014C132.465 21.919 132.344 21.6811 132.1 21.4858C131.856 21.2925 131.401 21.1057 130.737 20.9273L129.794 20.6597C128.662 20.3454 127.849 19.9165 127.35 19.3707C126.853 18.8271 126.602 18.171 126.602 17.4065C126.602 16.9138 126.706 16.4594 126.916 16.0432C127.127 15.627 127.42 15.266 127.796 14.9581C128.174 14.6523 128.617 14.4145 129.127 14.2425C129.637 14.0705 130.195 13.9876 130.796 13.9876C131.629 13.9876 132.404 14.1087 133.117 14.3529C133.833 14.5971 134.406 14.9284 134.841 15.3467L133.569 17.2324C133.37 17.0221 133.123 16.8395 132.83 16.6824C132.537 16.5252 132.217 16.4021 131.873 16.3129C131.527 16.2237 131.178 16.1791 130.828 16.1791C130.482 16.1791 130.18 16.2237 129.925 16.3129C129.669 16.4021 129.469 16.5295 129.324 16.693C129.18 16.8586 129.108 17.054 129.108 17.2791C129.108 17.4617 129.161 17.6167 129.269 17.7399C129.378 17.8631 129.558 17.9798 129.811 18.0903C130.066 18.2007 130.41 18.3196 130.845 18.4513L131.803 18.7337C132.928 19.0628 133.744 19.4769 134.247 19.976C134.75 20.475 135.001 21.1205 135.001 21.9169C135.001 22.6134 134.822 23.2271 134.466 23.7601C134.109 24.2909 133.606 24.7072 132.954 25.0044C132.304 25.3081 131.529 25.4568 130.635 25.4568Z" fill="#0032AF"/>
<path d="M142.019 25.4568C141.176 25.4568 140.396 25.3124 139.681 25.0214C138.965 24.7305 138.343 24.327 137.814 23.8068C137.286 23.2886 136.876 22.6813 136.585 21.9848C136.294 21.2883 136.149 20.5344 136.149 19.7211C136.149 18.9036 136.294 18.1476 136.585 17.4511C136.876 16.7546 137.286 16.1472 137.814 15.6291C138.343 15.111 138.965 14.7075 139.681 14.4187C140.396 14.1299 141.176 13.9855 142.019 13.9855C142.868 13.9855 143.648 14.132 144.361 14.4251C145.072 14.7181 145.695 15.128 146.223 15.6504C146.752 16.1749 147.162 16.7822 147.453 17.4766C147.744 18.171 147.888 18.9184 147.888 19.719C147.888 20.5302 147.744 21.2862 147.453 21.9827C147.162 22.6792 146.752 23.2865 146.223 23.8047C145.695 24.3228 145.072 24.7284 144.361 25.0193C143.65 25.3102 142.866 25.4568 142.019 25.4568ZM142.019 23.0062C142.475 23.0062 142.892 22.9298 143.272 22.779C143.652 22.6282 143.983 22.4074 144.266 22.1186C144.548 21.8298 144.767 21.4837 144.922 21.0781C145.077 20.6725 145.153 20.2202 145.153 19.7233C145.153 19.0522 145.017 18.4725 144.748 17.9798C144.478 17.4872 144.106 17.1071 143.633 16.8374C143.159 16.5677 142.62 16.4318 142.019 16.4318C141.569 16.4318 141.152 16.5082 140.77 16.6633C140.388 16.8183 140.057 17.0391 139.776 17.3279C139.496 17.6167 139.277 17.9607 139.12 18.3642C138.963 18.7677 138.885 19.22 138.885 19.7233C138.885 20.3879 139.02 20.9676 139.292 21.4603C139.564 21.9529 139.938 22.3331 140.411 22.6027C140.885 22.8703 141.422 23.0062 142.019 23.0062Z" fill="#0032AF"/>
<path d="M149.804 25.221V14.2212H157.047V16.6017H152.411V18.8717H156.561V21.1588H152.411V25.221H149.804Z" fill="#0032AF"/>
<path d="M161.095 25.221V16.6017H158.164V14.2212H166.65V16.6017H163.719V25.221H161.095Z" fill="#0032AF"/>
</svg>
